<svg width="160" height="124" viewBox="0 0 160 124" fill="none" xmlns="http://www.w3.org/2000/svg">
<circle cx="82.6291" cy="67.6056" r="56.338" fill="#E5E2FF"/>
<g clip-path="url(#clip0_423_558)">
<path d="M104.375 52.0928C102.533 50.0443 101.397 47.6141 99.7086 45.4772C95.5268 40.1857 89.5463 41.7165 84.1627 44.4772C84.1627 44.4772 73.1066 50.959 62.1812 49.4791C57.6904 48.87 52.676 48.6015 48.4121 50.0435C45.9571 50.874 43.7385 52.5065 42.9716 54.7467C42.3095 56.68 42.7843 58.7834 42.9048 60.8226C43.3132 67.7322 43.1535 71.6621 39.3203 77.149C38.119 78.8665 36.8435 81.6989 37.0699 83.7342C37.691 89.2923 45.4825 94.4601 49.7951 95.5133C61.9453 98.4824 68.6639 95.7104 81.0895 93.9773C91.3411 92.5472 100.842 93.0109 111.446 93.2458C113.961 93.3014 116.78 89.0614 118.351 87.1877C119.252 86.1143 119.696 84.7816 119.938 83.4458C121.445 75.11 117.394 64.9165 111.111 58.5125C108.947 56.304 106.435 54.3839 104.375 52.0928Z" fill="#E3F0FE"/>
<path d="M80.7829 98.8979C104.074 98.8979 122.956 97.174 122.956 95.0475C122.956 92.9209 104.074 91.197 80.7829 91.197C57.4914 91.197 38.61 92.9209 38.61 95.0475C38.61 97.174 57.4914 98.8979 80.7829 98.8979Z" fill="#C4A9E4"/>
<path d="M119.611 87.4387C119.152 87.4173 118.702 87.559 118.272 87.7195C114.886 88.9833 111.174 93.7299 110.435 94.8303L113.785 95.3028C115.92 93.1661 119.777 92.4476 120.803 89.2955C120.933 88.8982 120.969 88.4411 120.766 88.0749C120.544 87.6731 120.07 87.4599 119.611 87.4387Z" fill="#287064"/>
<path d="M119.263 80.821C117.368 79.2055 114.907 81.8631 113.764 83.1945C112.035 85.2072 110.647 87.5094 109.491 89.8909C109.324 90.2351 107.651 94.4174 107.63 94.4143L108.348 94.5157L110.437 94.8105C110.437 94.8105 114.221 89.3853 117.602 86.3124C119.202 84.8584 120.573 81.9389 119.263 80.821Z" fill="#39A08F"/>
<path d="M113.25 87.8921C111.912 89.9118 110.597 92.2386 109.448 94.6208L109.752 94.7673C111.205 91.7553 114.22 86.1522 118.084 82.4688L117.852 82.2246C116.327 83.677 114.779 85.5838 113.25 87.8921Z" fill="#17574D"/>
<path d="M97.4493 76.9101C95.6339 76.2316 95.1031 78.3622 95.2408 79.8379C95.4196 81.7503 97.0401 83.1974 97.9361 84.7295C99.585 87.5484 100.187 89.3376 101.095 93.49L103.831 93.879C103.831 93.879 104.755 84.8409 101.364 80.1239C100.447 78.8493 98.85 77.4337 97.4493 76.9101Z" fill="#17574D"/>
<path d="M105.941 75.7456C105.176 74.289 102.743 70.9696 100.902 71.919C99.8368 72.468 100.955 75.1445 101.237 75.9406C102.153 78.5217 102.785 81.2323 103.189 83.9858C103.657 87.171 103.884 90.4812 103.673 93.7318C103.67 93.7731 103.667 93.8141 103.664 93.8552L105.427 94.1039C106.777 92.2905 107.585 83.8362 107.418 81.1287C107.301 79.2471 106.785 77.3543 105.941 75.7456Z" fill="#39A08F"/>
<path d="M109.874 78.411C107.178 82.1897 105.933 89.3771 105.624 94.1312L108.144 94.4866C109.871 93.0242 117.148 79.7127 116.567 74.2991C116.366 72.4336 112.93 74.1267 109.874 78.411Z" fill="#17574D"/>
<path d="M96.8105 78.2312L96.6138 78.443C100.339 81.9068 102.588 87.889 102.341 93.6831L102.63 93.6955C102.752 90.8459 102.282 87.8985 101.273 85.172C100.241 82.3862 98.6975 79.986 96.8105 78.2312Z" fill="#39A08F"/>
<path d="M104.378 77.4046C103.91 75.8505 103.239 74.547 102.378 73.5303L102.121 73.7482C103.63 75.5343 104.513 78.1851 104.82 81.8523C105.133 85.6023 105.058 89.5736 104.591 93.9929L104.927 94.0281C105.396 89.5876 105.471 85.5957 105.156 81.8242C105.014 80.1184 104.759 78.6729 104.378 77.4046Z" fill="#17574D"/>
<path d="M110.099 84.7919C108.61 88.1191 107.59 91.2341 106.981 94.3152L107.264 94.3714C108.362 88.8233 110.839 83.0363 115.06 76.1636L114.814 76.0123C112.862 79.1909 111.32 82.0628 110.099 84.7919Z" fill="#39A08F"/>
<path d="M116.839 89.9939C115.507 90.9627 113.557 92.6065 111.829 94.9373L112.061 95.1095C113.766 92.811 115.689 91.1886 117.002 90.2322C118.427 89.1951 119.461 88.6962 119.471 88.6909L119.346 88.43C119.302 88.4504 118.282 88.9427 116.839 89.9939Z" fill="#17574D"/>
<path d="M60.6481 64.7615C60.6479 65.1519 60.7246 65.5384 60.8739 65.8991C61.0231 66.2598 61.2419 66.5876 61.5178 66.8637C61.7937 67.1399 62.1213 67.3589 62.4819 67.5084C62.8425 67.658 63.229 67.735 63.6193 67.7351H107.499C108.287 67.7348 109.043 67.4213 109.6 66.8637C110.157 66.306 110.47 65.5499 110.47 64.7615V42.0997H60.6481V64.7615Z" fill="white"/>
<path d="M106.13 35.8252H64.9877C62.5909 35.8252 60.6481 37.7699 60.6481 40.1685V42.0995H110.47V40.1685C110.47 37.7699 108.527 35.8252 106.13 35.8252Z" fill="#3784BF"/>
<g style="mix-blend-mode:multiply">
<path d="M65.349 38.7156C65.1222 38.7153 64.9005 38.7823 64.7118 38.908C64.5232 39.0337 64.376 39.2126 64.2891 39.422C64.2021 39.6314 64.1792 39.8619 64.2233 40.0843C64.2673 40.3067 64.3764 40.511 64.5366 40.6714C64.6968 40.8318 64.901 40.9411 65.1234 40.9854C65.3457 41.0297 65.5762 41.0071 65.7857 40.9204C65.9952 40.8337 66.1742 40.6867 66.3002 40.4982C66.4262 40.3097 66.4934 40.088 66.4933 39.8613C66.4935 39.5577 66.373 39.2664 66.1584 39.0515C65.9438 38.8367 65.6526 38.7158 65.349 38.7156Z" fill="#B3B3B3"/>
</g>
<path d="M65.349 45.5847C65.9813 45.5847 66.4938 45.0718 66.4938 44.439C66.4938 43.8063 65.9813 43.2933 65.349 43.2933C64.7167 43.2933 64.2041 43.8063 64.2041 44.439C64.2041 45.0718 64.7167 45.5847 65.349 45.5847Z" fill="#A5CCE3"/>
<path d="M65.3545 39.1796H65.3418C65.2588 39.1797 65.1765 39.1961 65.0998 39.2279C65.0231 39.2597 64.9534 39.3063 64.8947 39.365C64.836 39.4238 64.7894 39.4935 64.7577 39.5703C64.7259 39.647 64.7096 39.7293 64.7096 39.8123V44.3871C64.7096 44.5548 64.7762 44.7156 64.8948 44.8342C65.0133 44.9528 65.1741 45.0195 65.3418 45.0195H65.3545C65.5222 45.0195 65.683 44.9528 65.8015 44.8342C65.9201 44.7156 65.9867 44.5548 65.9867 44.3871V39.8123C65.9867 39.7293 65.9704 39.647 65.9386 39.5703C65.9069 39.4935 65.8603 39.4238 65.8016 39.365C65.7429 39.3063 65.6732 39.2597 65.5965 39.2279C65.5198 39.1961 65.4376 39.1797 65.3545 39.1796Z" fill="#32539B"/>
<g style="mix-blend-mode:multiply">
<path d="M69.8374 38.7156C69.6107 38.7154 69.389 38.7824 69.2004 38.9081C69.0117 39.0339 68.8647 39.2128 68.7777 39.4222C68.6908 39.6316 68.6679 39.862 68.712 40.0844C68.7561 40.3068 68.8652 40.5111 69.0254 40.6715C69.1856 40.8319 69.3899 40.9412 69.6122 40.9855C69.8345 41.0297 70.065 41.0071 70.2745 40.9204C70.484 40.8336 70.663 40.6867 70.7889 40.4982C70.9149 40.3097 70.9821 40.088 70.982 39.8613C70.9821 39.7109 70.9526 39.562 70.8951 39.4231C70.8376 39.2841 70.7533 39.1578 70.647 39.0514C70.5407 38.945 70.4145 38.8606 70.2756 38.803C70.1367 38.7454 69.9878 38.7157 69.8374 38.7156Z" fill="#B3B3B3"/>
</g>
<path d="M70.9124 44.4141C70.9124 43.7814 70.3998 43.2684 69.7675 43.2684C69.1352 43.2684 68.6226 43.7814 68.6226 44.4141C68.6226 45.0469 69.1352 45.5598 69.7675 45.5598C70.3998 45.5598 70.9124 45.0469 70.9124 44.4141Z" fill="#A5CCE3"/>
<path d="M69.8438 39.1796H69.8303C69.6626 39.1798 69.5018 39.2465 69.3833 39.3651C69.2648 39.4838 69.1983 39.6446 69.1984 39.8123V44.3871C69.1983 44.4701 69.2146 44.5523 69.2464 44.6291C69.2781 44.7058 69.3247 44.7755 69.3833 44.8342C69.442 44.8929 69.5117 44.9395 69.5884 44.9713C69.665 45.0031 69.7472 45.0195 69.8303 45.0195H69.8432C70.0109 45.0195 70.1717 44.9528 70.2903 44.8342C70.4088 44.7156 70.4754 44.5548 70.4754 44.3871V39.8123C70.4755 39.6447 70.409 39.4839 70.2905 39.3652C70.1721 39.2466 70.0114 39.1798 69.8438 39.1796Z" fill="#32539B"/>
<g style="mix-blend-mode:multiply">
<path d="M74.3256 38.7156C74.0989 38.7156 73.8773 38.7828 73.6889 38.9087C73.5004 39.0346 73.3534 39.2135 73.2667 39.4229C73.1799 39.6323 73.1572 39.8628 73.2014 40.0851C73.2456 40.3074 73.3548 40.5116 73.515 40.6719C73.6753 40.8322 73.8795 40.9413 74.1019 40.9855C74.3242 41.0297 74.5546 41.007 74.764 40.9203C74.9734 40.8335 75.1524 40.6866 75.2783 40.4981C75.4042 40.3096 75.4713 40.088 75.4713 39.8613C75.4713 39.7109 75.4417 39.5619 75.3842 39.4228C75.3266 39.2838 75.2422 39.1575 75.1358 39.0511C75.0294 38.9447 74.9031 38.8603 74.7641 38.8028C74.6251 38.7452 74.4761 38.7156 74.3256 38.7156Z" fill="#B3B3B3"/>
</g>
<path d="M74.3256 43.2936C74.0989 43.2936 73.8773 43.3607 73.6888 43.4866C73.5003 43.6126 73.3534 43.7915 73.2667 44.001C73.1799 44.2104 73.1572 44.4408 73.2014 44.6632C73.2457 44.8855 73.3548 45.0897 73.5151 45.25C73.6754 45.4102 73.8797 45.5194 74.102 45.5635C74.3243 45.6077 74.5548 45.585 74.7642 45.4982C74.9736 45.4113 75.1525 45.2644 75.2784 45.0759C75.4043 44.8873 75.4714 44.6657 75.4713 44.439C75.4713 44.2886 75.4417 44.1396 75.3841 44.0006C75.3265 43.8616 75.2421 43.7354 75.1357 43.629C75.0293 43.5226 74.903 43.4383 74.764 43.3807C74.625 43.3232 74.4761 43.2936 74.3256 43.2936Z" fill="#A5CCE3"/>
<path d="M74.3325 39.1796H74.3198C74.2367 39.1797 74.1545 39.1961 74.0778 39.2279C74.0011 39.2597 73.9314 39.3063 73.8727 39.365C73.814 39.4238 73.7674 39.4935 73.7356 39.5703C73.7039 39.647 73.6876 39.7293 73.6876 39.8123V44.3871C73.6876 44.5548 73.7542 44.7156 73.8728 44.8342C73.9913 44.9528 74.1521 45.0195 74.3198 45.0195H74.3325C74.5002 45.0195 74.661 44.9528 74.7795 44.8342C74.8981 44.7156 74.9647 44.5548 74.9647 44.3871V39.8123C74.9647 39.7293 74.9484 39.647 74.9166 39.5703C74.8849 39.4935 74.8383 39.4238 74.7796 39.365C74.7209 39.3063 74.6512 39.2597 74.5745 39.2279C74.4978 39.1961 74.4155 39.1797 74.3325 39.1796Z" fill="#32539B"/>
<g style="mix-blend-mode:multiply">
<path d="M78.8141 38.7156C78.5874 38.7154 78.3657 38.7825 78.1771 38.9083C77.9885 39.0341 77.8415 39.213 77.7546 39.4224C77.6677 39.6318 77.6448 39.8622 77.689 40.0846C77.7331 40.307 77.8422 40.5113 78.0024 40.6716C78.1627 40.832 78.3669 40.9412 78.5892 40.9855C78.8115 41.0297 79.042 41.0071 79.2515 40.9203C79.4609 40.8336 79.6399 40.6867 79.7659 40.4982C79.8918 40.3097 79.959 40.088 79.9589 39.8613C79.959 39.7109 79.9295 39.562 79.872 39.423C79.8145 39.284 79.7301 39.1577 79.6238 39.0513C79.5175 38.9449 79.3913 38.8605 79.2523 38.8029C79.1134 38.7453 78.9645 38.7157 78.8141 38.7156Z" fill="#B3B3B3"/>
</g>
<path d="M78.8141 43.2936C78.5874 43.2934 78.3657 43.3604 78.1771 43.4862C77.9885 43.612 77.8415 43.7909 77.7546 44.0003C77.6677 44.2097 77.6448 44.4401 77.6889 44.6625C77.733 44.8848 77.8421 45.0891 78.0023 45.2495C78.1625 45.4099 78.3667 45.5191 78.589 45.5634C78.8114 45.6077 79.0418 45.5851 79.2513 45.4984C79.4607 45.4117 79.6398 45.2648 79.7657 45.0763C79.8917 44.8879 79.9589 44.6663 79.9589 44.4396C79.959 44.2891 79.9295 44.1402 79.872 44.0012C79.8145 43.8622 79.7302 43.7359 79.6238 43.6295C79.5175 43.5231 79.3913 43.4386 79.2524 43.381C79.1134 43.3234 78.9645 43.2937 78.8141 43.2936Z" fill="#A5CCE3"/>
<path d="M78.8204 39.1796H78.8082C78.7252 39.1797 78.6429 39.1961 78.5662 39.2279C78.4895 39.2597 78.4198 39.3063 78.3611 39.365C78.3024 39.4238 78.2558 39.4935 78.2241 39.5703C78.1923 39.647 78.176 39.7293 78.1761 39.8123V44.3871C78.1761 44.5548 78.2427 44.7156 78.3612 44.8342C78.4797 44.9528 78.6405 45.0195 78.8082 45.0195H78.8209C78.9886 45.0195 79.1494 44.9528 79.268 44.8342C79.3865 44.7156 79.4531 44.5548 79.4531 44.3871V39.8123C79.4531 39.7292 79.4368 39.6469 79.405 39.5702C79.3732 39.4934 79.3266 39.4236 79.2679 39.3649C79.2091 39.3061 79.1393 39.2595 79.0626 39.2277C78.9858 39.1959 78.9035 39.1796 78.8204 39.1796Z" fill="#32539B"/>
<g style="mix-blend-mode:multiply">
<path d="M83.3025 38.7156C83.0758 38.7154 82.8541 38.7825 82.6655 38.9083C82.4769 39.0341 82.3299 39.213 82.243 39.4224C82.1561 39.6318 82.1333 39.8622 82.1774 40.0846C82.2215 40.307 82.3306 40.5113 82.4909 40.6716C82.6511 40.832 82.8553 40.9412 83.0777 40.9855C83.3 41.0297 83.5305 41.0071 83.7399 40.9203C83.9494 40.8336 84.1284 40.6867 84.2543 40.4982C84.3803 40.3097 84.4475 40.088 84.4474 39.8613C84.4475 39.7109 84.4179 39.562 84.3604 39.423C84.3029 39.284 84.2186 39.1577 84.1123 39.0513C84.006 38.9449 83.8797 38.8605 83.7408 38.8029C83.6018 38.7453 83.4529 38.7157 83.3025 38.7156Z" fill="#B3B3B3"/>
</g>
<path d="M83.3035 45.5886C83.9358 45.5875 84.4475 45.0737 84.4464 44.4409C84.4453 43.8082 83.9318 43.2961 83.2995 43.2972C82.6672 43.2983 82.1555 43.8122 82.1566 44.4449C82.1577 45.0777 82.6712 45.5897 83.3035 45.5886Z" fill="#A5CCE3"/>
<path d="M83.3086 39.1796H83.2959C83.2128 39.1797 83.1306 39.1961 83.0539 39.2279C82.9772 39.2597 82.9075 39.3063 82.8488 39.365C82.7901 39.4238 82.7435 39.4935 82.7118 39.5703C82.68 39.647 82.6637 39.7293 82.6637 39.8123V44.3871C82.6637 44.5548 82.7303 44.7156 82.8489 44.8342C82.9674 44.9528 83.1282 45.0195 83.2959 45.0195H83.3086C83.4763 45.0195 83.6371 44.9528 83.7556 44.8342C83.8742 44.7156 83.9408 44.5548 83.9408 44.3871V39.8123C83.9408 39.7293 83.9245 39.647 83.8927 39.5703C83.861 39.4935 83.8144 39.4238 83.7557 39.365C83.697 39.3063 83.6273 39.2597 83.5506 39.2279C83.4739 39.1961 83.3917 39.1797 83.3086 39.1796Z" fill="#32539B"/>
<g style="mix-blend-mode:multiply">
<path d="M87.7907 38.7156C87.564 38.7154 87.3423 38.7825 87.1537 38.9083C86.9652 39.0341 86.8181 39.213 86.7312 39.4224C86.6443 39.6318 86.6215 39.8622 86.6656 40.0846C86.7097 40.307 86.8188 40.5113 86.9791 40.6716C87.1393 40.832 87.3435 40.9412 87.5659 40.9855C87.7882 41.0297 88.0187 41.0071 88.2281 40.9203C88.4376 40.8336 88.6166 40.6867 88.7425 40.4982C88.8685 40.3097 88.9357 40.088 88.9356 39.8613C88.9357 39.5576 88.8151 39.2663 88.6004 39.0514C88.3857 38.8366 88.0945 38.7158 87.7907 38.7156Z" fill="#B3B3B3"/>
</g>
<path d="M87.7907 45.5847C88.423 45.5847 88.9356 45.0718 88.9356 44.439C88.9356 43.8063 88.423 43.2933 87.7907 43.2933C87.1584 43.2933 86.6458 43.8063 86.6458 44.439C86.6458 45.0718 87.1584 45.5847 87.7907 45.5847Z" fill="#A5CCE3"/>
<path d="M87.7971 39.1796H87.7844C87.7013 39.1797 87.6191 39.1961 87.5424 39.2279C87.4656 39.2597 87.3959 39.3063 87.3372 39.365C87.2785 39.4238 87.232 39.4935 87.2002 39.5703C87.1685 39.647 87.1522 39.7293 87.1522 39.8123V44.3871C87.1522 44.5548 87.2188 44.7156 87.3373 44.8342C87.4559 44.9528 87.6167 45.0195 87.7844 45.0195H87.7971C87.9648 45.0195 88.1255 44.9528 88.2441 44.8342C88.3626 44.7156 88.4292 44.5548 88.4292 44.3871V39.8123C88.4293 39.7293 88.4129 39.647 88.3812 39.5703C88.3494 39.4935 88.3029 39.4238 88.2442 39.365C88.1855 39.3063 88.1158 39.2597 88.0391 39.2279C87.9623 39.1961 87.8801 39.1797 87.7971 39.1796Z" fill="#32539B"/>
<g style="mix-blend-mode:multiply">
<path d="M92.2791 38.7156C92.0524 38.7154 91.8308 38.7825 91.6422 38.9083C91.4536 39.0341 91.3065 39.213 91.2197 39.4224C91.1328 39.6318 91.1099 39.8622 91.1541 40.0846C91.1982 40.307 91.3073 40.5113 91.4675 40.6716C91.6278 40.832 91.832 40.9412 92.0543 40.9855C92.2766 41.0297 92.5071 41.0071 92.7166 40.9203C92.926 40.8336 93.105 40.6867 93.231 40.4982C93.3569 40.3097 93.4241 40.088 93.424 39.8613C93.4241 39.7109 93.3945 39.562 93.337 39.423C93.2795 39.284 93.1952 39.1577 93.0889 39.0513C92.9826 38.9449 92.8564 38.8605 92.7174 38.8029C92.5785 38.7453 92.4296 38.7157 92.2791 38.7156Z" fill="#B3B3B3"/>
</g>
<path d="M92.2792 45.5847C92.9115 45.5847 93.4241 45.0718 93.4241 44.439C93.4241 43.8063 92.9115 43.2933 92.2792 43.2933C91.6469 43.2933 91.1343 43.8063 91.1343 44.439C91.1343 45.0718 91.6469 45.5847 92.2792 45.5847Z" fill="#A5CCE3"/>
<path d="M92.2855 39.1796H92.2728C92.1898 39.1797 92.1075 39.1961 92.0308 39.2279C91.9541 39.2597 91.8844 39.3063 91.8257 39.365C91.767 39.4238 91.7204 39.4935 91.6887 39.5703C91.6569 39.647 91.6406 39.7293 91.6407 39.8123V44.3871C91.6407 44.5548 91.7072 44.7156 91.8258 44.8342C91.9443 44.9528 92.1051 45.0195 92.2728 45.0195H92.2855C92.4532 45.0195 92.614 44.9528 92.7326 44.8342C92.8511 44.7156 92.9177 44.5548 92.9177 44.3871V39.8123C92.9177 39.7293 92.9014 39.647 92.8697 39.5703C92.8379 39.4935 92.7914 39.4238 92.7326 39.365C92.6739 39.3063 92.6043 39.2597 92.5275 39.2279C92.4508 39.1961 92.3686 39.1797 92.2855 39.1796Z" fill="#32539B"/>
<g style="mix-blend-mode:multiply">
<path d="M96.7673 38.7156C96.5406 38.7154 96.319 38.7825 96.1304 38.9083C95.9418 39.0341 95.7947 39.213 95.7078 39.4224C95.621 39.6318 95.5981 39.8622 95.6422 40.0846C95.6864 40.307 95.7954 40.5113 95.9557 40.6716C96.1159 40.832 96.3202 40.9412 96.5425 40.9855C96.7648 41.0297 96.9953 41.0071 97.2048 40.9203C97.4142 40.8336 97.5932 40.6867 97.7192 40.4982C97.8451 40.3097 97.9123 40.088 97.9122 39.8613C97.9123 39.7109 97.8827 39.562 97.8252 39.423C97.7677 39.284 97.6834 39.1577 97.5771 39.0513C97.4708 38.9449 97.3446 38.8605 97.2056 38.8029C97.0667 38.7453 96.9178 38.7157 96.7673 38.7156Z" fill="#B3B3B3"/>
</g>
<path d="M96.7673 43.2936C96.5407 43.2934 96.319 43.3604 96.1304 43.4862C95.9418 43.612 95.7948 43.7909 95.7079 44.0003C95.621 44.2097 95.5981 44.4401 95.6422 44.6625C95.6863 44.8848 95.7954 45.0891 95.9556 45.2495C96.1158 45.4099 96.32 45.5191 96.5423 45.5634C96.7647 45.6077 96.9951 45.5851 97.2046 45.4984C97.414 45.4117 97.5931 45.2648 97.719 45.0763C97.845 44.8879 97.9122 44.6663 97.9122 44.4396C97.9123 44.2891 97.8828 44.1402 97.8253 44.0011C97.7678 43.8621 97.6835 43.7358 97.5772 43.6294C97.4709 43.523 97.3446 43.4385 97.2057 43.3809C97.0667 43.3233 96.9178 43.2936 96.7673 43.2936Z" fill="#A5CCE3"/>
<path d="M96.774 39.1796H96.7613C96.5935 39.1796 96.4325 39.2463 96.3139 39.3649C96.1952 39.4836 96.1286 39.6445 96.1286 39.8123V44.3871C96.1286 44.5548 96.1952 44.7157 96.3138 44.8343C96.4324 44.9529 96.5933 45.0195 96.761 45.0195H96.7737C96.9414 45.0195 97.1022 44.9528 97.2207 44.8342C97.3393 44.7156 97.4059 44.5548 97.4059 44.3871V39.8123C97.4059 39.6446 97.3394 39.4838 97.2209 39.3651C97.1024 39.2465 96.9417 39.1798 96.774 39.1796Z" fill="#32539B"/>
<g style="mix-blend-mode:multiply">
<path d="M101.256 38.7156C101.029 38.7154 100.807 38.7825 100.619 38.9083C100.43 39.0341 100.283 39.213 100.196 39.4224C100.109 39.6318 100.087 39.8622 100.131 40.0846C100.175 40.307 100.284 40.5113 100.444 40.6716C100.604 40.832 100.809 40.9412 101.031 40.9855C101.253 41.0297 101.484 41.0071 101.693 40.9203C101.903 40.8336 102.082 40.6867 102.208 40.4982C102.334 40.3097 102.401 40.088 102.401 39.8613C102.401 39.7109 102.371 39.562 102.314 39.423C102.256 39.284 102.172 39.1577 102.066 39.0513C101.959 38.9449 101.833 38.8605 101.694 38.8029C101.555 38.7453 101.406 38.7157 101.256 38.7156Z" fill="#B3B3B3"/>
</g>
<path d="M101.256 43.2936C101.029 43.2934 100.807 43.3604 100.619 43.4862C100.43 43.612 100.283 43.7909 100.196 44.0003C100.109 44.2097 100.087 44.4401 100.131 44.6625C100.175 44.8848 100.284 45.0891 100.444 45.2495C100.604 45.4099 100.808 45.5191 101.031 45.5634C101.253 45.6077 101.484 45.5851 101.693 45.4984C101.902 45.4117 102.082 45.2648 102.207 45.0763C102.333 44.8879 102.401 44.6663 102.401 44.4396C102.401 44.2891 102.371 44.1402 102.314 44.0011C102.256 43.8621 102.172 43.7358 102.066 43.6294C101.959 43.523 101.833 43.4385 101.694 43.3809C101.555 43.3233 101.406 43.2936 101.256 43.2936Z" fill="#A5CCE3"/>
<path d="M101.262 39.1796H101.249C101.166 39.1797 101.084 39.1961 101.007 39.2279C100.931 39.2597 100.861 39.3063 100.802 39.365C100.744 39.4238 100.697 39.4935 100.665 39.5703C100.634 39.647 100.617 39.7293 100.617 39.8123V44.3871C100.617 44.5548 100.684 44.7156 100.802 44.8342C100.921 44.9528 101.082 45.0195 101.249 45.0195H101.262C101.345 45.0195 101.428 45.0031 101.504 44.9713C101.581 44.9395 101.651 44.8929 101.709 44.8342C101.768 44.7755 101.815 44.7058 101.846 44.6291C101.878 44.5523 101.894 44.4701 101.894 44.3871V39.8123C101.894 39.6446 101.828 39.4838 101.709 39.3651C101.591 39.2465 101.43 39.1798 101.262 39.1796Z" fill="#32539B"/>
<g style="mix-blend-mode:multiply">
<path d="M105.744 38.7156C105.518 38.7154 105.296 38.7824 105.107 38.9081C104.919 39.0339 104.771 39.2128 104.685 39.4222C104.598 39.6316 104.575 39.862 104.619 40.0844C104.663 40.3068 104.772 40.5111 104.932 40.6715C105.092 40.8319 105.297 40.9412 105.519 40.9855C105.741 41.0297 105.972 41.0071 106.181 40.9204C106.391 40.8336 106.57 40.6867 106.696 40.4982C106.822 40.3097 106.889 40.088 106.889 39.8613C106.889 39.5576 106.768 39.2663 106.554 39.0515C106.339 38.8367 106.048 38.7158 105.744 38.7156Z" fill="#B3B3B3"/>
<path d="M105.744 38.7024C105.515 38.7021 105.291 38.7699 105.1 38.8971C104.909 39.0244 104.76 39.2053 104.672 39.4171C104.584 39.6289 104.561 39.8621 104.606 40.087C104.65 40.312 104.761 40.5186 104.923 40.6809C105.085 40.8431 105.292 40.9536 105.516 40.9984C105.741 41.0432 105.975 41.0203 106.186 40.9326C106.398 40.8448 106.579 40.6962 106.707 40.5055C106.834 40.3148 106.902 40.0907 106.902 39.8613C106.902 39.5542 106.78 39.2598 106.563 39.0425C106.346 38.8253 106.051 38.703 105.744 38.7024ZM105.744 40.994C105.52 40.9943 105.301 40.9281 105.115 40.8038C104.928 40.6795 104.783 40.5027 104.697 40.2957C104.611 40.0888 104.588 39.861 104.632 39.6412C104.675 39.4213 104.783 39.2194 104.942 39.0608C105.1 38.9023 105.302 38.7943 105.521 38.7505C105.741 38.7067 105.969 38.729 106.176 38.8147C106.383 38.9004 106.56 39.0456 106.685 39.2319C106.809 39.4182 106.876 39.6372 106.876 39.8613C106.875 40.1614 106.756 40.4492 106.544 40.6616C106.332 40.8739 106.044 40.9935 105.744 40.994Z" fill="black"/>
</g>
<g style="mix-blend-mode:multiply">
<path d="M105.744 43.2936C105.518 43.2933 105.296 43.3603 105.107 43.4861C104.919 43.6119 104.772 43.7907 104.685 44.0001C104.598 44.2095 104.575 44.4399 104.619 44.6623C104.663 44.8847 104.772 45.089 104.932 45.2494C105.092 45.4098 105.297 45.5191 105.519 45.5634C105.741 45.6077 105.972 45.5851 106.181 45.4984C106.391 45.4117 106.57 45.2648 106.696 45.0764C106.822 44.8879 106.889 44.6663 106.889 44.4396C106.889 44.1358 106.769 43.8445 106.554 43.6296C106.339 43.4147 106.048 43.2938 105.744 43.2936Z" fill="#E6E6E6"/>
<path d="M105.744 43.2798C105.515 43.2796 105.291 43.3473 105.1 43.4745C104.909 43.6018 104.76 43.7827 104.672 43.9945C104.584 44.2063 104.561 44.4394 104.606 44.6644C104.65 44.8893 104.761 45.096 104.923 45.2582C105.085 45.4205 105.291 45.531 105.516 45.5758C105.741 45.6207 105.974 45.5978 106.186 45.5101C106.398 45.4224 106.579 45.2738 106.707 45.0832C106.834 44.8925 106.902 44.6683 106.902 44.439C106.902 44.1319 106.78 43.8374 106.563 43.6201C106.346 43.4027 106.051 43.2804 105.744 43.2798ZM105.744 45.5715C105.52 45.5717 105.301 45.5055 105.115 45.3812C104.928 45.2569 104.783 45.0801 104.697 44.8731C104.611 44.6661 104.588 44.4383 104.632 44.2185C104.675 43.9987 104.783 43.7967 104.942 43.6382C105.1 43.4797 105.302 43.3717 105.522 43.3279C105.741 43.2841 105.969 43.3065 106.176 43.3922C106.383 43.478 106.56 43.6232 106.685 43.8095C106.809 43.9959 106.876 44.2149 106.876 44.439C106.875 44.7391 106.756 45.0268 106.544 45.239C106.332 45.4512 106.044 45.5707 105.744 45.5712V45.5715Z" fill="black"/>
</g>
<path d="M105.751 39.1796H105.738C105.57 39.1799 105.41 39.2467 105.291 39.3653C105.173 39.484 105.106 39.6447 105.107 39.8123V44.3871C105.107 44.5548 105.173 44.7156 105.292 44.8342C105.41 44.9528 105.571 45.0195 105.739 45.0195H105.751C105.919 45.0195 106.08 44.9528 106.198 44.8342C106.317 44.7156 106.384 44.5548 106.384 44.3871V39.8123C106.384 39.7292 106.367 39.6469 106.335 39.5701C106.304 39.4933 106.257 39.4235 106.198 39.3648C106.139 39.306 106.07 39.2594 105.993 39.2276C105.916 39.1959 105.834 39.1796 105.751 39.1796Z" fill="#32539B"/>
<path d="M69.3154 47.523H64.8566V51.9853H69.3154V47.523Z" fill="#D9ECFF"/>
<path d="M75.4824 47.523H71.0236V51.9853H75.4824V47.523Z" fill="#D9ECFF"/>
<path d="M81.6489 47.523H77.1903V51.9853H81.6489V47.523Z" fill="#D9ECFF"/>
<path d="M87.8159 47.523H83.3573V51.9853H87.8159V47.523Z" fill="#D9ECFF"/>
<path d="M93.9826 47.523H89.5241V51.9853H93.9826V47.523Z" fill="#D9ECFF"/>
<path d="M100.15 47.523H95.691V51.9853H100.15V47.523Z" fill="#D9ECFF"/>
<path d="M106.316 47.523H101.858V51.9853H106.316V47.523Z" fill="#D9ECFF"/>
<path d="M64.8291 58.0365L69.3154 58.0641V53.6018L64.8291 53.574V58.0365Z" fill="#D9ECFF"/>
<path d="M75.4824 53.6019H71.0236V58.0641H75.4824V53.6019Z" fill="#D9ECFF"/>
<path d="M77.1628 58.0365L81.6491 58.0641V53.6018L77.1628 53.574V58.0365Z" fill="#D9ECFF"/>
<path d="M87.8159 53.6019H83.3573V58.0641H87.8159V53.6019Z" fill="#D9ECFF"/>
<path d="M93.9826 53.6019H89.5241V58.0641H93.9826V53.6019Z" fill="#D9ECFF"/>
<path d="M100.15 53.6019H95.691V58.0641H100.15V53.6019Z" fill="#D9ECFF"/>
<path d="M106.316 53.6019H101.858V58.0641H106.316V53.6019Z" fill="#D9ECFF"/>
<path d="M64.8291 64.1151L69.3154 64.1429V59.6806L64.8291 59.6528V64.1151Z" fill="#D9ECFF"/>
<path d="M75.4824 59.6806H71.0236V64.1429H75.4824V59.6806Z" fill="#D9ECFF"/>
<path d="M81.6489 59.6806H77.1903V64.1429H81.6489V59.6806Z" fill="#D9ECFF"/>
<path d="M87.8159 59.6806H83.3573V64.1429H87.8159V59.6806Z" fill="#D9ECFF"/>
<path d="M93.9826 59.6806H89.5241V64.1429H93.9826V59.6806Z" fill="#D9ECFF"/>
<path d="M100.15 59.6253H95.691V64.0875H100.15V59.6253Z" fill="#D9ECFF"/>
<path d="M106.289 59.6528H101.83V64.1151H106.289V59.6528Z" fill="#D9ECFF"/>
<path d="M67.4295 49.6447L67.9661 48.9386C68.0133 48.8762 68.0394 48.8004 68.0405 48.7222C68.0401 48.6877 68.0327 48.6536 68.0187 48.6221C68.0048 48.5905 67.9845 48.5622 67.9592 48.5387C67.9075 48.4898 67.8411 48.4594 67.7704 48.4521C67.7126 48.4513 67.6555 48.4649 67.6043 48.4918C67.5499 48.5276 67.5029 48.5734 67.4658 48.6269L67.0868 49.1584L66.6819 48.6131C66.6102 48.5058 66.5208 48.4521 66.4136 48.4521C66.3257 48.4569 66.2605 48.4815 66.2179 48.5265C66.1671 48.586 66.1342 48.6586 66.1228 48.736C66.1322 48.8133 66.164 48.8861 66.2145 48.9455L66.7388 49.6447L66.0863 50.5083C66.0435 50.5835 66.0199 50.6262 66.0153 50.6365C66.0024 50.6719 65.9965 50.7095 65.9981 50.7472C65.9981 50.8383 66.0252 50.9063 66.0794 50.9514C66.1403 51.0009 66.2173 51.0262 66.2958 51.0223C66.3869 51.0223 66.4694 50.9739 66.5434 50.8769L67.0868 50.1354L67.6181 50.8624C67.6468 50.9028 67.68 50.9399 67.7169 50.9731C67.7547 50.9998 67.7987 51.0165 67.8448 51.0215C67.9291 51.0254 68.012 50.999 68.0786 50.9471C68.1364 50.9046 68.1669 50.8399 68.1703 50.7533C68.1706 50.6727 68.1445 50.5942 68.0959 50.53L67.4295 49.6447Z" fill="#E54357"/>
<path d="M104.479 49.6338L105.015 48.9277C105.062 48.8654 105.088 48.7896 105.09 48.7114C105.089 48.6769 105.082 48.6428 105.068 48.6112C105.054 48.5796 105.034 48.5513 105.008 48.5278C104.957 48.479 104.89 48.4486 104.82 48.4412C104.762 48.4404 104.705 48.4541 104.653 48.481C104.599 48.5167 104.552 48.5626 104.515 48.616L104.136 49.1465L103.731 48.6015C103.66 48.4941 103.571 48.4404 103.463 48.4404C103.375 48.4449 103.31 48.4698 103.267 48.5149C103.216 48.5744 103.183 48.647 103.172 48.7243C103.181 48.8016 103.213 48.8745 103.264 48.9338L103.788 49.633L103.135 50.4972C103.093 50.5724 103.069 50.6151 103.065 50.6253C103.051 50.6607 103.046 50.6984 103.047 50.7361C103.047 50.8272 103.074 50.8952 103.128 50.9402C103.189 50.9898 103.266 51.0151 103.345 51.0112C103.436 51.0112 103.518 50.9628 103.592 50.8658L104.136 50.1243L104.667 50.8513C104.696 50.8917 104.729 50.9288 104.766 50.962C104.804 50.9887 104.848 51.0053 104.894 51.0104C104.978 51.0142 105.061 50.9878 105.128 50.936C105.185 50.8933 105.216 50.8287 105.219 50.7421C105.22 50.6616 105.194 50.5831 105.145 50.5189L104.479 49.6338Z" fill="#E54357"/>
<path d="M81.0043 47.9283H77.6901C77.6352 47.9283 77.5825 47.9501 77.5436 47.9889C77.5048 48.0278 77.483 48.0804 77.483 48.1354C77.483 48.1903 77.5048 48.243 77.5436 48.2818C77.5825 48.3206 77.6352 48.3425 77.6901 48.3425H81.0043C81.0592 48.3425 81.1119 48.3206 81.1507 48.2818C81.1895 48.243 81.2114 48.1903 81.2114 48.1354C81.2114 48.0804 81.1895 48.0278 81.1507 47.9889C81.1119 47.9501 81.0592 47.9283 81.0043 47.9283Z" fill="#757575"/>
<path d="M81.0043 47.9139H77.6901C77.6316 47.9139 77.5756 47.9372 77.5343 47.9785C77.493 48.0198 77.4697 48.0758 77.4697 48.1343C77.4697 48.1927 77.493 48.2488 77.5343 48.2901C77.5756 48.3314 77.6316 48.3546 77.6901 48.3546H81.0043C81.0627 48.3546 81.1187 48.3314 81.1601 48.2901C81.2014 48.2488 81.2246 48.1927 81.2246 48.1343C81.2246 48.0758 81.2014 48.0198 81.1601 47.9785C81.1187 47.9372 81.0627 47.9139 81.0043 47.9139ZM81.0043 48.3281H77.6901C77.6387 48.3281 77.5894 48.3077 77.553 48.2714C77.5167 48.235 77.4962 48.1857 77.4962 48.1343C77.4962 48.0829 77.5167 48.0336 77.553 47.9972C77.5894 47.9608 77.6387 47.9404 77.6901 47.9404H81.0043C81.0557 47.9404 81.105 47.9608 81.1413 47.9972C81.1777 48.0336 81.1981 48.0829 81.1981 48.1343C81.1981 48.1857 81.1777 48.235 81.1413 48.2714C81.105 48.3077 81.0557 48.3281 81.0043 48.3281Z" fill="black"/>
<path d="M105.716 60.2064H102.402C102.347 60.2064 102.295 60.2282 102.256 60.267C102.217 60.3059 102.195 60.3585 102.195 60.4135C102.195 60.4684 102.217 60.5211 102.256 60.5599C102.295 60.5987 102.347 60.6206 102.402 60.6206H105.716C105.771 60.6206 105.823 60.5987 105.862 60.5599C105.901 60.5211 105.923 60.4684 105.923 60.4135C105.923 60.3585 105.901 60.3059 105.862 60.267C105.823 60.2282 105.771 60.2064 105.716 60.2064Z" fill="#B7DAF7"/>
<path d="M93.2556 60.2064H90.2513C90.0514 60.2064 89.8893 60.3684 89.8893 60.5684V61.0872C89.8893 61.2872 90.0514 61.4492 90.2513 61.4492H93.2556C93.4556 61.4492 93.6176 61.2872 93.6176 61.0872V60.5684C93.6176 60.3684 93.4556 60.2064 93.2556 60.2064Z" fill="#B7DAF7"/>
<path d="M79.0066 48.8287H77.6901C77.6364 48.8306 77.5856 48.8533 77.5483 48.8919C77.511 48.9306 77.4901 48.9822 77.4901 49.0359C77.4901 49.0896 77.511 49.1413 77.5483 49.1799C77.5856 49.2186 77.6364 49.2412 77.6901 49.2432H79.0066C79.0603 49.2412 79.1111 49.2186 79.1484 49.1799C79.1857 49.1413 79.2066 49.0896 79.2066 49.0359C79.2066 48.9822 79.1857 48.9306 79.1484 48.8919C79.1111 48.8533 79.0603 48.8306 79.0066 48.8287Z" fill="#757575"/>
<path d="M79.0066 48.816H77.6901C77.6329 48.818 77.5788 48.8421 77.5391 48.8832C77.4993 48.9243 77.4771 48.9793 77.4771 49.0365C77.4771 49.0936 77.4993 49.1486 77.5391 49.1897C77.5788 49.2309 77.6329 49.255 77.6901 49.2569H79.0066C79.0638 49.255 79.1179 49.2309 79.1576 49.1897C79.1974 49.1486 79.2196 49.0936 79.2196 49.0365C79.2196 48.9793 79.1974 48.9243 79.1576 48.8832C79.1179 48.8421 79.0638 48.818 79.0066 48.816ZM79.0066 49.2304H77.6901C77.6399 49.2286 77.5923 49.2073 77.5575 49.1712C77.5226 49.135 77.5031 49.0867 77.5031 49.0365C77.5031 48.9862 77.5226 48.9379 77.5575 48.9017C77.5923 48.8656 77.6399 48.8443 77.6901 48.8425H79.0066C79.0568 48.8443 79.1043 48.8656 79.1392 48.9017C79.1741 48.9379 79.1936 48.9862 79.1936 49.0365C79.1936 49.0867 79.1741 49.135 79.1392 49.1712C79.1043 49.2073 79.0568 49.2286 79.0066 49.2304Z" fill="black"/>
<path d="M79.835 55.3357L79.4526 54.5606L79.0699 55.3357L78.2147 55.4599L78.8337 56.0632L78.6875 56.9152L79.4526 56.5129L80.2177 56.9152L80.0715 56.0632L80.6904 55.4599L79.835 55.3357Z" fill="#E4E4E4"/>
<path d="M79.8438 55.3236L79.4526 54.5306L79.0612 55.3236L78.1872 55.4507L78.8204 56.068L78.6711 56.9393L79.4536 56.528L80.2362 56.9393L80.0869 56.068L80.7198 55.4507L79.8438 55.3236ZM80.2 56.8909L79.4526 56.4981L78.705 56.8909L78.8477 56.0587L78.2431 55.4692L79.0789 55.3477L79.4526 54.5905L79.8263 55.3477L80.6621 55.4692L80.0572 56.0587L80.2 56.8909Z" fill="black"/>
<path d="M83.3634 58.3808C83.3634 58.3808 83.6696 58.3565 83.6812 58.1931C83.6929 58.0297 83.4069 57.5024 82.6327 57.2722C81.8586 57.0421 82.392 57.7773 82.392 57.7773C82.392 57.7773 81.7122 57.3776 81.4386 57.7243C81.165 58.071 81.7175 58.4473 81.7175 58.4473C81.7175 58.4473 81.3997 58.3107 81.1568 58.4918C80.914 58.673 81.3779 59.4452 81.3779 59.4452L81.5233 60.2114L83.2382 61.3388C83.2382 61.3388 85.3436 61.8846 85.0724 60.3531C84.8012 58.8215 83.3634 58.3808 83.3634 58.3808Z" fill="#FFA2A1"/>
<path d="M89.7939 62.1714L91.3901 69.4081C91.3901 69.4081 93.2061 66.0778 92.5612 65.1416C91.9163 64.2054 89.7939 62.1714 89.7939 62.1714Z" fill="#E54357"/>
<path d="M76.9279 43.703C72.8039 43.2396 69.071 46.2169 68.6075 50.3412C68.1441 54.4655 71.1235 58.197 75.2467 58.6605C77.0503 58.8645 78.8666 58.4068 80.3581 57.3723C80.6648 57.1613 80.9551 56.9272 81.2265 56.6721C82.5374 55.4522 83.3671 53.8024 83.565 52.0226C84.0284 47.8983 81.0501 44.1676 76.9279 43.703ZM82.1865 51.8672C81.808 55.2359 78.7701 57.66 75.4011 57.2815C72.0321 56.903 69.6083 53.8651 69.9871 50.4959C70.3658 47.1266 73.4034 44.7031 76.7724 45.0818C80.1414 45.4605 82.5639 48.4984 82.1852 51.8672H82.1865Z" fill="#444444"/>
<g opacity="0.59">
<path d="M76.7711 45.0818C73.4024 44.7031 70.3642 47.1271 69.9857 50.4958C69.6073 53.8646 72.0311 56.9028 75.3998 57.2815C78.7685 57.6602 81.8067 55.2359 82.1852 51.8672C82.5636 48.4984 80.1398 45.4602 76.7711 45.0818Z" fill="white"/>
<path d="M76.7727 45.068C75.9699 44.9778 75.1572 45.0465 74.3811 45.2704C73.6049 45.4942 72.8804 45.8687 72.2489 46.3726C70.9737 47.3901 70.1548 48.8726 69.9726 50.4939C69.8824 51.2966 69.9511 52.1093 70.175 52.8855C70.3988 53.6617 70.7734 54.3862 71.2772 55.0176C71.781 55.6491 72.4043 56.1751 73.1114 56.5657C73.8186 56.9562 74.5957 57.2037 75.3985 57.2939C75.6305 57.3201 75.8638 57.3333 76.0974 57.3334C77.6685 57.3306 79.1791 56.7268 80.3192 55.6458C81.4594 54.5648 82.1427 53.0885 82.2291 51.5197C82.3155 49.9509 81.7983 48.4086 80.7837 47.2089C79.7692 46.0093 78.334 45.2433 76.7727 45.068ZM82.1717 51.8656C82.0394 53.0397 81.5704 54.1504 80.8212 55.064C80.0719 55.9775 79.0744 56.6548 77.9489 57.0143C76.8234 57.3737 75.6179 57.3999 74.4778 57.0897C73.3378 56.7795 72.3118 56.1461 71.5236 55.266C70.7353 54.3858 70.2185 53.2965 70.0354 52.1293C69.8523 50.962 70.0108 49.7668 70.4916 48.6875C70.9725 47.6083 71.7553 46.6912 72.7456 46.0468C73.7359 45.4025 74.8915 45.0583 76.073 45.0558C76.3055 45.0557 76.5379 45.0686 76.769 45.0945C77.5683 45.1843 78.3421 45.4307 79.0462 45.8195C79.7503 46.2084 80.3709 46.7321 80.8726 47.3608C81.3742 47.9895 81.7472 48.7109 81.9701 49.4837C82.193 50.2566 82.2615 51.0657 82.1717 51.865V51.8656Z" fill="black"/>
</g>
<path d="M81.2257 56.6721C80.9547 56.9274 80.6644 57.1615 80.3575 57.3723L86.8871 67.3954C86.9244 67.4617 86.9748 67.5197 87.0354 67.5658C87.096 67.6118 87.1654 67.6449 87.2393 67.6631C87.3132 67.6812 87.39 67.684 87.4651 67.6713C87.5401 67.6586 87.6117 67.6306 87.6755 67.589C87.7392 67.5475 87.7938 67.4933 87.8358 67.4299C87.8778 67.3664 87.9063 67.295 87.9196 67.2201C87.9329 67.1451 87.9307 67.0683 87.913 66.9942C87.8954 66.9202 87.8628 66.8506 87.8172 66.7897L81.2257 56.6721Z" fill="#444444"/>
<path d="M76.0974 57.3339C75.8638 57.3338 75.6305 57.3206 75.3985 57.2945C73.814 57.1138 72.3624 56.3224 71.3521 55.0886C70.3417 53.8547 69.8522 52.2756 69.9876 50.6866C70.1229 49.0976 70.8725 47.624 72.077 46.5788C73.2814 45.5337 74.846 44.9993 76.4381 45.0891C78.0303 45.179 79.5248 45.8862 80.6039 47.0603C81.6831 48.2344 82.262 49.783 82.2176 51.3771C82.1733 52.9713 81.5091 54.4853 80.3663 55.5975C79.2235 56.7098 77.6921 57.3327 76.0974 57.3339ZM76.0735 45.0558C74.4748 45.0577 72.9398 45.683 71.7947 46.7987C70.6496 47.9144 69.9847 49.4326 69.9413 51.0308C69.8979 52.6289 70.4793 54.1811 71.5621 55.3573C72.6449 56.5336 74.1436 57.2413 75.7399 57.33C77.3362 57.4188 78.9042 56.8816 80.1107 55.8326C81.3172 54.7836 82.0671 53.3055 82.2011 51.7124C82.3351 50.1193 81.8426 48.5367 80.8282 47.3009C79.8139 46.0652 78.3577 45.2736 76.769 45.0945C76.5381 45.0686 76.3059 45.0557 76.0735 45.0558Z" fill="black"/>
<mask id="mask0_423_558" style="mask-type:luminance" maskUnits="userSpaceOnUse" x="69" y="45" width="14" height="13">
<path d="M76.0974 57.3339C75.8638 57.3338 75.6305 57.3206 75.3985 57.2945C73.814 57.1138 72.3624 56.3224 71.3521 55.0886C70.3417 53.8547 69.8522 52.2756 69.9876 50.6866C70.1229 49.0976 70.8725 47.624 72.077 46.5788C73.2814 45.5337 74.846 44.9993 76.4381 45.0891C78.0303 45.179 79.5248 45.8862 80.6039 47.0603C81.6831 48.2344 82.262 49.783 82.2176 51.3771C82.1733 52.9713 81.5091 54.4853 80.3663 55.5975C79.2235 56.7098 77.6921 57.3327 76.0974 57.3339ZM76.0735 45.0558C74.4748 45.0577 72.9398 45.683 71.7947 46.7987C70.6496 47.9144 69.9847 49.4326 69.9413 51.0308C69.8979 52.6289 70.4793 54.1811 71.5621 55.3573C72.6449 56.5336 74.1436 57.2413 75.7399 57.33C77.3362 57.4188 78.9042 56.8816 80.1107 55.8326C81.3172 54.7836 82.0671 53.3055 82.2011 51.7124C82.3351 50.1193 81.8426 48.5367 80.8282 47.3009C79.8139 46.0652 78.3577 45.2736 76.769 45.0945C76.5381 45.0686 76.3059 45.0557 76.0735 45.0558Z" fill="white"/>
</mask>
<g mask="url(#mask0_423_558)">
<path d="M38.3941 42.0984L38.5615 69.741C38.567 70.7026 38.9542 71.6227 39.638 72.2988C40.3218 72.9749 41.2462 73.3517 42.2078 73.3462L95.7313 73.0223C96.6928 73.016 97.6124 72.6281 98.2879 71.9438C98.9633 71.2595 99.3393 70.3349 99.3331 69.3734L99.1652 41.7311L38.3941 42.0984Z" fill="white"/>
<path d="M99.1784 41.7173L38.3941 42.0852H38.3809L38.5483 69.741C38.5604 71.7411 40.1903 73.3595 42.1853 73.3595H42.2078L95.7313 73.0348C97.7369 73.0226 99.3596 71.3798 99.3463 69.3724L99.1784 41.7311V41.7173ZM95.7313 73.0083L42.2078 73.333H42.1855C40.2046 73.333 38.5869 71.7262 38.575 69.741L38.4071 42.1116L99.1519 41.744L99.3191 69.3734C99.3312 71.3663 97.7213 72.9969 95.7313 73.0083Z" fill="black"/>
<g style="mix-blend-mode:multiply">
<path d="M71.526 46.1495C72.2972 46.1454 72.9192 45.5165 72.9151 44.7446C72.9111 43.9728 72.2826 43.3504 71.5113 43.3544C70.7401 43.3585 70.1181 43.9874 70.1222 44.7592C70.1262 45.5311 70.7547 46.1535 71.526 46.1495Z" fill="#E6E6E6"/>
<path d="M71.5104 43.3408C71.1362 43.3419 70.7778 43.4916 70.5141 43.757C70.2503 44.0223 70.1027 44.3816 70.1038 44.7558C70.105 45.1299 70.2547 45.4883 70.52 45.7521C70.7854 46.0159 71.1447 46.1635 71.5189 46.1623H71.5276C71.9018 46.16 72.2597 46.0092 72.5227 45.743C72.7856 45.4768 72.9321 45.1171 72.9298 44.7429C72.9275 44.3688 72.7767 44.0108 72.5105 43.7479C72.2443 43.4849 71.8846 43.3385 71.5104 43.3408ZM72.503 45.7243C72.343 45.886 72.1456 46.0058 71.9282 46.073C71.7109 46.1402 71.4803 46.1528 71.2569 46.1096C71.0336 46.0665 70.8243 45.9689 70.6476 45.8256C70.4709 45.6823 70.3323 45.4976 70.244 45.2879C70.1558 45.0782 70.1205 44.85 70.1415 44.6235C70.1625 44.397 70.2389 44.1791 70.3642 43.9892C70.4894 43.7992 70.6596 43.6431 70.8596 43.5347C71.0595 43.4262 71.2832 43.3687 71.5107 43.3672H71.5191C71.792 43.3676 72.0588 43.4485 72.2858 43.6C72.5128 43.7514 72.69 43.9666 72.7952 44.2185C72.9003 44.4703 72.9287 44.7476 72.8767 45.0155C72.8247 45.2834 72.6947 45.53 72.503 45.7243Z" fill="black"/>
</g>
<path d="M71.4879 38.3364H71.4723C71.371 38.337 71.2708 38.3576 71.1774 38.3969C71.0841 38.4363 70.9994 38.4936 70.9282 38.5657C70.8571 38.6378 70.8008 38.7232 70.7626 38.8171C70.7245 38.9109 70.7052 39.0113 70.7058 39.1126L70.7397 44.6927C70.7403 44.794 70.7608 44.8942 70.8001 44.9875C70.8395 45.0809 70.8968 45.1656 70.9688 45.2368C71.0408 45.3079 71.1262 45.3643 71.22 45.4025C71.3138 45.4407 71.4142 45.46 71.5154 45.4594H71.5311C71.7356 45.4581 71.9313 45.3756 72.075 45.23C72.2187 45.0845 72.2988 44.8878 72.2975 44.6832L72.2636 39.1031C72.2623 38.8986 72.1799 38.7029 72.0345 38.5592C71.889 38.4154 71.6924 38.3353 71.4879 38.3364Z" fill="#C3C3C3"/>
<path d="M72.0438 38.5499C71.8974 38.4042 71.6991 38.3227 71.4926 38.3232H71.4723C71.2642 38.3247 71.0653 38.4087 70.9192 38.5567C70.773 38.7047 70.6915 38.9046 70.6926 39.1126L70.7265 44.6927C70.7279 44.8999 70.8111 45.0982 70.9579 45.2443C71.1048 45.3904 71.3035 45.4726 71.5107 45.473H71.531C71.7391 45.4714 71.938 45.3874 72.0841 45.2394C72.2303 45.0914 72.3118 44.8915 72.3107 44.6835L72.2768 39.1034C72.2765 39.0003 72.2558 38.8983 72.2158 38.8033C72.1757 38.7082 72.1173 38.6221 72.0438 38.5499ZM71.5308 45.4465H71.5107C71.3104 45.4461 71.1185 45.3667 70.9766 45.2255C70.8347 45.0843 70.7543 44.8927 70.753 44.6925L70.7191 39.1124C70.7181 38.9114 70.7968 38.7182 70.9381 38.5752C71.0793 38.4322 71.2715 38.3511 71.4725 38.3496H71.4926C71.6929 38.3498 71.8849 38.4291 72.0269 38.5703C72.1688 38.7115 72.2492 38.9031 72.2503 39.1034L72.2842 44.6835C72.2852 44.8845 72.2065 45.0777 72.0652 45.2207C71.924 45.3637 71.7318 45.4449 71.5308 45.4465Z" fill="black"/>
<path d="M76.9854 43.3201C76.7089 43.3213 76.4389 43.4045 76.2097 43.5592C75.9805 43.7138 75.8024 43.933 75.6978 44.189C75.5932 44.445 75.5669 44.7262 75.6222 44.9971C75.6775 45.268 75.8119 45.5165 76.0084 45.711C76.205 45.9055 76.4548 46.0373 76.7263 46.0898C76.9978 46.1422 77.2787 46.113 77.5336 46.0057C77.7884 45.8985 78.0057 45.718 78.158 45.4872C78.3103 45.2564 78.3907 44.9857 78.389 44.7092C78.387 44.3389 78.238 43.9845 77.9748 43.724C77.7115 43.4636 77.3557 43.3183 76.9854 43.3201Z" fill="#A5CCE3"/>
<path d="M76.9629 38.3033H76.9472C76.8459 38.3039 76.7457 38.3244 76.6524 38.3638C76.559 38.4031 76.4743 38.4605 76.4031 38.5325C76.3319 38.6046 76.2757 38.69 76.2375 38.7839C76.1994 38.8778 76.1801 38.9782 76.1808 39.0795L76.2144 44.6596C76.2157 44.8642 76.2981 45.0599 76.4437 45.2037C76.5892 45.3474 76.7858 45.4275 76.9904 45.4263H77.006C77.1073 45.4257 77.2075 45.4051 77.3008 45.3657C77.3941 45.3263 77.4787 45.269 77.5499 45.1969C77.621 45.1248 77.6773 45.0394 77.7154 44.9456C77.7536 44.8518 77.7729 44.7514 77.7722 44.6501L77.7386 39.07C77.7373 38.8655 77.6549 38.6698 77.5094 38.5261C77.364 38.3823 77.1674 38.3022 76.9629 38.3033Z" fill="#32539B"/>
<g style="mix-blend-mode:multiply">
<path d="M82.4601 43.2878C82.1836 43.2893 81.9138 43.3727 81.6848 43.5275C81.4558 43.6823 81.2778 43.9016 81.1734 44.1576C81.069 44.4136 81.0429 44.6948 81.0984 44.9656C81.1538 45.2365 81.2883 45.4848 81.4849 45.6791C81.6815 45.8735 81.9313 46.0052 82.2028 46.0576C82.4742 46.1099 82.7551 46.0806 83.0099 45.9733C83.2647 45.866 83.4819 45.6856 83.6341 45.4548C83.7863 45.224 83.8667 44.9533 83.865 44.6769C83.864 44.4934 83.8268 44.3119 83.7556 44.1428C83.6845 43.9737 83.5807 43.8203 83.4502 43.6913C83.3198 43.5624 83.1652 43.4603 82.9953 43.3911C82.8254 43.3218 82.6435 43.2867 82.4601 43.2878Z" fill="#E6E6E6"/>
<path d="M82.4685 43.2745H82.4598C82.0856 43.2757 81.7273 43.4254 81.4635 43.6907C81.1997 43.9561 81.0521 44.3154 81.0533 44.6896C81.0544 45.0637 81.2041 45.4221 81.4695 45.6859C81.7348 45.9497 82.0941 46.0972 82.4683 46.0961H82.477C82.8512 46.095 83.2096 45.9453 83.4734 45.6799C83.7371 45.4145 83.8847 45.0553 83.8836 44.6811C83.8824 44.3069 83.7327 43.9485 83.4674 43.6848C83.202 43.421 82.8427 43.2734 82.4685 43.2745ZM82.4768 46.0696H82.4683C82.2865 46.0702 82.1064 46.0349 81.9382 45.9658C81.7701 45.8968 81.6172 45.7952 81.4882 45.6671C81.3593 45.5389 81.2569 45.3866 81.1868 45.2189C81.1168 45.0511 81.0804 44.8712 81.0799 44.6894C81.0793 44.5076 81.1146 44.3275 81.1837 44.1594C81.2527 43.9912 81.3543 43.8383 81.4824 43.7094C81.6106 43.5805 81.7629 43.478 81.9306 43.408C82.0984 43.3379 82.2783 43.3016 82.4601 43.301H82.4685C82.6503 43.3005 82.8305 43.3358 82.9986 43.4048C83.1668 43.4739 83.3197 43.5754 83.4486 43.7036C83.5775 43.8317 83.6799 43.984 83.75 44.1518C83.8201 44.3195 83.8564 44.4994 83.857 44.6812C83.8575 44.863 83.8222 45.0431 83.7532 45.2113C83.6841 45.3794 83.5826 45.5323 83.4544 45.6613C83.3262 45.7902 83.1739 45.8926 83.0062 45.9627C82.8384 46.0328 82.6585 46.0691 82.4768 46.0696Z" fill="black"/>
</g>
<path d="M82.4365 38.2702H82.4209C82.3196 38.2708 82.2194 38.2913 82.126 38.3307C82.0326 38.37 81.9479 38.4273 81.8768 38.4994C81.8056 38.5715 81.7493 38.6569 81.7112 38.7508C81.673 38.8447 81.6537 38.9451 81.6544 39.0464L81.6883 44.6263C81.6888 44.7276 81.7092 44.828 81.7484 44.9215C81.7876 45.0149 81.8449 45.0998 81.9169 45.1711C81.989 45.2425 82.0744 45.2989 82.1683 45.3372C82.2621 45.3755 82.3627 45.3949 82.464 45.3943H82.4797C82.5811 45.3938 82.6813 45.3733 82.7748 45.3339C82.8683 45.2946 82.953 45.2373 83.0243 45.1651C83.0956 45.093 83.1519 45.0075 83.1901 44.9136C83.2283 44.8197 83.2476 44.7192 83.2469 44.6178L83.2133 39.0377C83.2128 38.9362 83.1922 38.8359 83.1529 38.7424C83.1136 38.6489 83.0562 38.5641 82.984 38.4929C82.9119 38.4216 82.8264 38.3652 82.7324 38.327C82.6385 38.2888 82.5379 38.2695 82.4365 38.2702Z" fill="#C3C3C3"/>
<path d="M82.9927 38.4834C82.9202 38.4113 82.8342 38.3542 82.7396 38.3153C82.6451 38.2765 82.5438 38.2566 82.4415 38.2569H82.4211C82.3181 38.2576 82.2163 38.2786 82.1214 38.3187C82.0265 38.3587 81.9404 38.4171 81.868 38.4904C81.7957 38.5638 81.7385 38.6506 81.6997 38.7461C81.6609 38.8415 81.6413 38.9437 81.642 39.0467L81.6759 44.6268C81.6771 44.834 81.7602 45.0323 81.9071 45.1785C82.0541 45.3246 82.2529 45.4067 82.4601 45.4067H82.4805C82.6884 45.4053 82.8873 45.3214 83.0334 45.1735C83.1796 45.0256 83.2611 44.8257 83.2602 44.6178L83.2265 39.0377C83.2262 38.9344 83.2053 38.8322 83.1651 38.7371C83.125 38.6419 83.0664 38.5557 82.9927 38.4834ZM82.4799 45.3802H82.4596C82.2593 45.3802 82.0672 45.301 81.9252 45.1597C81.7832 45.0185 81.7029 44.8268 81.7019 44.6265L81.6685 39.0464C81.6678 38.9469 81.6868 38.8482 81.7243 38.7559C81.7618 38.6637 81.8171 38.5798 81.887 38.509C81.957 38.4381 82.0402 38.3818 82.1319 38.3431C82.2237 38.3045 82.3221 38.2843 82.4217 38.2837H82.4421C82.6423 38.2837 82.8345 38.363 82.9764 38.5042C83.1184 38.6454 83.1987 38.8371 83.1998 39.0374L83.2337 44.6178C83.2347 44.8187 83.156 45.0117 83.0148 45.1546C82.8737 45.2976 82.6816 45.3787 82.4807 45.3802H82.4799Z" fill="black"/>
<path d="M71.6613 48.3021L66.2226 48.3565L66.277 53.7997L71.7157 53.7453L71.6613 48.3021Z" fill="#D9ECFF"/>
<path d="M79.096 48.4642L73.6574 48.4974L73.6907 53.9405L79.1293 53.9072L79.096 48.4642Z" fill="#D9ECFF"/>
<path d="M86.618 48.4182L81.1794 48.4514L81.2127 53.8945L86.6513 53.8613L86.618 48.4182Z" fill="#D9ECFF"/>
<path d="M66.1663 55.9486L66.1994 61.4164L71.6627 61.3833L71.6296 55.9155L66.1663 55.9486ZM66.224 61.3915L66.1914 55.9732L71.6049 55.9406L71.6378 61.3589L66.224 61.3915Z" fill="black"/>
<path d="M79.1413 55.8789L73.7027 55.9121L73.736 61.3552L79.1745 61.322L79.1413 55.8789Z" fill="#D9ECFF"/>
<path d="M81.2106 55.8577L81.2437 61.3256L86.707 61.2925L86.6739 55.8246L81.2106 55.8577ZM81.2683 61.3004L81.2355 55.8824L86.6493 55.8495L86.6821 61.2678L81.2683 61.3004Z" fill="black"/>
<path d="M77.3741 52.4387C77.9649 51.8478 77.9649 50.8898 77.3741 50.299C76.7832 49.7081 75.8252 49.7081 75.2343 50.299C74.6435 50.8898 74.6435 51.8478 75.2344 52.4387C75.8252 53.0296 76.7832 53.0296 77.3741 52.4387Z" fill="white"/>
<path d="M76.2949 49.8425C75.8936 49.8488 75.5109 50.013 75.2298 50.2995C74.9486 50.586 74.7916 50.9717 74.7928 51.3731C74.794 51.7745 74.9532 52.1592 75.2361 52.444C75.5189 52.7288 75.9026 52.8908 76.3039 52.8947H76.3135C76.5154 52.8959 76.7156 52.8569 76.9023 52.7802C77.0891 52.7034 77.2588 52.5903 77.4015 52.4475C77.5443 52.3047 77.6573 52.1349 77.734 51.9481C77.8107 51.7613 77.8495 51.5612 77.8483 51.3592C77.8471 51.1573 77.8058 50.9576 77.7268 50.7718C77.6479 50.5859 77.5328 50.4176 77.3883 50.2765C77.2439 50.1354 77.0728 50.0244 76.8851 49.9499C76.6974 49.8754 76.4968 49.8389 76.2949 49.8425ZM77.371 52.4228C77.1976 52.5983 76.9837 52.7282 76.7481 52.8013C76.5125 52.8743 76.2625 52.8881 76.0203 52.8414C75.7782 52.7947 75.5512 52.6891 75.3596 52.5337C75.168 52.3784 75.0177 52.1782 74.9219 51.9509C74.8262 51.7236 74.788 51.4762 74.8107 51.2306C74.8334 50.985 74.9163 50.7488 75.0521 50.5429C75.1879 50.337 75.3724 50.1678 75.5893 50.0503C75.8061 49.9327 76.0486 49.8704 76.2952 49.869H76.3045C76.6003 49.8691 76.8895 49.9566 77.1357 50.1206C77.3818 50.2847 77.574 50.5178 77.688 50.7908C77.802 51.0638 77.8327 51.3644 77.7763 51.6548C77.7199 51.9451 77.5789 52.2124 77.371 52.4228Z" fill="black"/>
<path d="M76.2944 49.7395C75.9722 49.7416 75.6579 49.8392 75.3911 50.0199C75.1244 50.2006 74.9172 50.4564 74.7958 50.7548C74.6744 51.0533 74.6442 51.381 74.7091 51.6967C74.774 52.0123 74.9309 52.3016 75.1602 52.528C75.3894 52.7544 75.6807 52.9077 75.9971 52.9686C76.3135 53.0295 76.6408 52.9952 76.9377 52.8701C77.2347 52.745 77.4878 52.5346 77.6652 52.2657C77.8426 51.9967 77.9362 51.6811 77.9343 51.3589C77.9312 50.9268 77.7568 50.5136 77.4493 50.21C77.1419 49.9064 76.7265 49.7371 76.2944 49.7395ZM76.3127 52.7652C76.0364 52.7669 75.7659 52.6866 75.5353 52.5345C75.3047 52.3824 75.1244 52.1653 75.0172 51.9107C74.91 51.6561 74.8807 51.3754 74.933 51.1042C74.9854 50.8329 75.117 50.5833 75.3112 50.3868C75.5055 50.1904 75.7536 50.056 76.0243 50.0006C76.2949 49.9452 76.5759 49.9714 76.8317 50.0757C77.0875 50.1801 77.3066 50.3579 77.4613 50.5868C77.616 50.8157 77.6993 51.0853 77.7007 51.3616C77.7021 51.7316 77.5568 52.0871 77.2967 52.3501C77.0365 52.6132 76.6827 52.7625 76.3127 52.7652Z" fill="#17574D"/>
<path d="M76.2001 51.896L75.3879 51.0758L75.1842 51.2776L76.2438 52.3479L78.0998 49.5642L77.8612 49.405L76.2001 51.896Z" fill="#17574D"/>
</g>
<path d="M79.5188 47.4028C78.4891 46.3901 77.3786 45.8819 76.3076 45.933C76.2763 45.9334 76.2454 45.9401 76.2168 45.9528C76.1882 45.9654 76.1624 45.9837 76.1409 46.0065C76.1195 46.0293 76.1029 46.0562 76.092 46.0855C76.0812 46.1149 76.0764 46.1461 76.0779 46.1774C76.0794 46.2087 76.0871 46.2393 76.1007 46.2675C76.1143 46.2957 76.1334 46.3209 76.1569 46.3415C76.1804 46.3622 76.2079 46.3779 76.2376 46.3878C76.2673 46.3976 76.2987 46.4014 76.3299 46.3988C78.6152 46.2894 80.3318 49.1499 80.3488 49.1796C80.3803 49.2328 80.4316 49.2714 80.4915 49.2868C80.5513 49.3022 80.6149 49.2933 80.6682 49.262C80.682 49.2537 80.6949 49.2441 80.7068 49.2334C80.7465 49.1972 80.7725 49.1485 80.7805 49.0955C80.7884 49.0424 80.7779 48.9882 80.7505 48.942C80.4023 48.3821 79.9888 47.8654 79.5188 47.4028Z" fill="#D9ECFF"/>
<path d="M83.4273 59.7855C82.7307 59.4942 81.6624 59.7183 81.6624 59.7183C81.6624 59.7183 81.3684 58.8443 80.9916 58.8382C80.6147 58.8321 80.7161 59.7588 80.6883 60.0035C80.6605 60.2482 81.1094 60.7996 81.5316 61.0427C81.9537 61.2858 83.1068 62.1328 83.1068 62.1328L84.3537 61.4566C84.3537 61.4566 84.1238 60.076 83.4273 59.7855Z" fill="#FFD4D3"/>
<path d="M100.337 88.7113L99.9716 88.2605L98.8384 86.8638L98.4867 86.4305L97.8574 82.8814L97.6188 81.5337L93.838 81.874L94.0988 83.0898L95.0197 87.381L95.9493 88.3522L98.0031 90.4981L98.1554 90.6573L101.492 94.6683L102.935 92.9476L103.362 92.4394L102.306 91.1377L100.337 88.7113Z" fill="#FFD4D3"/>
<path d="M89.2211 81.4415L88.6806 85.7967L88.9438 88.7926L89.1006 90.576L89.1596 91.2455L89.6128 96.3976L92.6155 94.9397L92.4879 91.6669L92.4431 90.5206L92.3644 88.5111L92.2675 86.038L92.8396 82.4794L93.0567 81.1282L89.3742 80.2076L89.2211 81.4415Z" fill="#FFD4D3"/>
<path d="M92.3644 88.5111L89.9973 88.1011C89.6298 88.3057 89.2777 88.5368 88.9438 88.7926L89.1006 90.576L89.1594 91.2455C89.795 91.0964 90.5974 90.9743 91.0662 91.1555C91.5212 91.3324 92.0638 91.5262 92.4892 91.6669L92.4444 90.5206L92.3644 88.5111Z" fill="#FFA2A1"/>
<path d="M97.9014 86.5539C97.9014 86.5539 96.2149 86.1241 96.0944 87.1397C96.051 87.5052 95.9885 87.93 95.9493 88.3522L98.0031 90.4973C98.215 89.8988 98.7897 88.6522 99.9716 88.2597L98.8384 86.863C98.3156 86.681 97.9014 86.5539 97.9014 86.5539Z" fill="#FFA2A1"/>
<path d="M88.0966 95.7136L86.7004 96.8346C86.6822 96.8493 86.6689 96.8691 86.6624 96.8916C86.6559 96.914 86.6564 96.9379 86.6639 96.96C86.6714 96.9821 86.6856 97.0014 86.7044 97.0152C86.7232 97.029 86.7459 97.0367 86.7692 97.0372L92.7847 97.158L92.8327 94.7726L89.3575 94.7029L88.0966 95.7136Z" fill="#EE9B2A"/>
<path d="M91.7537 95.2522C91.5943 95.249 91.4374 95.2931 91.303 95.3791C91.1687 95.465 91.0628 95.5888 90.9988 95.735C90.9348 95.8811 90.9156 96.0429 90.9435 96.1999C90.9715 96.3569 91.0454 96.5021 91.1559 96.6172C91.2664 96.7322 91.4086 96.8119 91.5644 96.8461C91.7201 96.8803 91.8826 96.8676 92.0311 96.8095C92.1797 96.7515 92.3077 96.6506 92.3989 96.5198C92.4902 96.389 92.5406 96.234 92.5437 96.0745C92.5459 95.9687 92.5272 95.8634 92.4886 95.7648C92.4501 95.6661 92.3925 95.5761 92.3191 95.4997C92.2457 95.4233 92.158 95.3622 92.061 95.3197C91.964 95.2773 91.8596 95.2543 91.7537 95.2522Z" fill="white"/>
<path d="M88.0966 95.7136L86.7004 96.8346C86.6822 96.8493 86.6689 96.8691 86.6624 96.8916C86.6559 96.914 86.6564 96.9379 86.6639 96.96C86.6714 96.9821 86.6856 97.0014 86.7044 97.0152C86.7232 97.029 86.7459 97.0367 86.7692 97.0372L89.0045 97.082C88.8456 96.3023 88.3728 95.8926 88.0966 95.7136Z" fill="white"/>
<path d="M86.6961 97.0095L86.6869 97.4705L92.7737 97.5927L92.783 97.1317L86.6961 97.0095Z" fill="#784D03"/>
<path d="M88.5036 95.3605L88.4872 95.4259C88.619 95.4695 88.7391 95.5425 88.8384 95.6396C88.9376 95.7366 89.0133 95.855 89.0598 95.9858L89.1228 95.9622C88.9419 95.4765 88.5216 95.3653 88.5036 95.3605Z" fill="black"/>
<path d="M88.9155 95.0621L88.8988 95.1275C89.0304 95.1713 89.1503 95.2445 89.2495 95.3415C89.3487 95.4385 89.4246 95.5567 89.4714 95.6873L89.5344 95.6638C89.3535 95.1778 88.9332 95.0666 88.9155 95.0621Z" fill="black"/>
<path d="M95.0035 56.5066C95.0035 56.5066 93.8383 55.818 93.4026 59.5522C93.3292 60.1817 93.5414 58.7137 94.1211 57.7916C94.7093 57.4889 95.3028 56.6003 95.0035 56.5066Z" fill="#67201B"/>
<path d="M100.146 62.0139C99.3413 61.5957 99.3408 60.7493 100.521 59.0972C101.702 57.4452 100.812 56.7285 99.4515 56.4324C98.0905 56.1363 97.4708 57.4716 97.4708 57.4716L98.1657 58.2458C98.1657 58.2458 97.1455 58.1637 96.9172 60.0522C96.689 61.9408 98.3209 62.0584 98.23 62.3386C98.1392 62.6187 97.899 62.6034 97.899 62.6034C98.3662 62.9612 98.5611 62.5621 98.5611 62.5621C98.7793 63.2369 99.8077 63.761 100.396 63.2959C100.985 62.8309 100.049 62.3664 100.049 62.3664C101.097 62.4013 101.283 61.4283 101.283 61.4283C101.283 61.4283 100.95 62.432 100.146 62.0139Z" fill="#67201B"/>
<path d="M97.8055 57.099C97.8055 57.099 97.8407 57.4793 97.6114 57.5643L98.2226 58.2874C98.2226 58.2874 97.1935 58.1735 96.9059 60.0766C96.6183 61.9797 98.2645 62.1473 98.1649 62.4281C98.1453 62.4868 98.1132 62.5405 98.0706 62.5854C98.162 62.4956 98.5222 62.1005 98.0441 61.8489C97.5012 61.5639 97.9342 60.544 98.4575 59.1211C98.9809 57.6981 97.8055 57.099 97.8055 57.099Z" fill="#54201B"/>
<path d="M93.7699 62.4119C93.6956 62.6069 93.7008 62.8233 93.7844 63.0146C93.868 63.2058 94.0234 63.3566 94.217 63.4344C94.4107 63.5123 94.6271 63.511 94.8198 63.4309C95.0125 63.3507 95.1661 63.1981 95.2475 63.0059L95.8767 61.4559L94.3878 60.8605L93.7699 62.4119Z" fill="#FFD4D3"/>
<path d="M94.0787 61.6354C94.3142 61.748 95.1304 62.0901 95.7528 61.7678L95.8587 61.5054L94.3698 60.91L94.0787 61.6354Z" fill="#FFA2A1"/>
<path d="M97.0709 57.1655C95.4585 56.2709 94.6116 56.9775 94.6116 56.9775C94.6116 56.9775 93.7376 58.0368 93.5017 59.1685C93.3255 60.013 93.5419 60.9164 94.5454 61.3534C96.8929 62.3754 97.752 59.602 97.752 59.602C97.752 59.602 98.6832 58.0598 97.0709 57.1655Z" fill="#FFD4D3"/>
<path d="M93.9757 58.9476L93.9513 58.9497L93.9423 58.9712L93.9757 58.9476Z" fill="#F48183" stroke="#F48183" stroke-miterlimit="10"/>
<path d="M93.7228 59.222C93.7228 59.2167 93.7228 59.2111 93.7228 59.2058L93.704 59.1973L93.7228 59.222Z" fill="#F48183" stroke="#F48183" stroke-miterlimit="10"/>
<path d="M94.0946 58.6163L94.0549 58.7045L94.0168 58.7929C93.994 58.8459 93.9728 58.8973 93.9513 58.9497L93.9757 58.9476L93.9423 58.9712L93.9513 58.9497C93.9211 58.9526 93.8911 58.9582 93.8618 58.9664C93.8237 58.9767 93.7873 58.9926 93.7538 59.0135C93.717 59.0358 93.6879 59.0687 93.6701 59.1078C93.6541 59.1475 93.6501 59.1909 93.6587 59.2328L93.6624 59.2519L93.6788 59.2577L93.7943 59.2985C93.8327 59.3123 93.8716 59.325 93.9103 59.3377C93.949 59.3504 93.9882 59.3626 94.0271 59.375C94.066 59.3875 94.1065 59.3983 94.1452 59.4092C94.1092 59.3896 94.0726 59.3711 94.0361 59.3525C93.9995 59.334 93.963 59.3162 93.9257 59.2996C93.8883 59.2829 93.852 59.2643 93.8147 59.2479L93.7217 59.2063C93.7217 59.2116 93.7217 59.2172 93.7217 59.2225L93.7019 59.1979L93.7207 59.2063C93.7188 59.1828 93.7231 59.1591 93.7331 59.1377C93.747 59.1123 93.7675 59.0912 93.7924 59.0766C93.82 59.0601 93.8498 59.0478 93.8809 59.04C93.9127 59.0317 93.9451 59.0261 93.9778 59.0233L94.0025 59.0215L94.0112 58.9998C94.0345 58.9396 94.0581 58.8798 94.0801 58.8194L94.1137 58.7288L94.1457 58.6377C94.1675 58.5771 94.1873 58.5156 94.2072 58.4545C94.227 58.3933 94.2461 58.3313 94.2631 58.2691C94.2321 58.326 94.2035 58.3837 94.1751 58.4417C94.1468 58.4997 94.1206 58.5572 94.0946 58.6163Z" fill="#F48183"/>
<path d="M93.9513 58.9497C93.9728 58.8973 93.994 58.8459 94.0168 58.7929L94.0549 58.7045L94.0946 58.6163C94.1206 58.5572 94.1468 58.4997 94.1751 58.4417C94.2035 58.3837 94.2321 58.326 94.2631 58.2691C94.2461 58.3313 94.227 58.3933 94.2072 58.4545C94.1873 58.5156 94.1675 58.5771 94.1457 58.6377L94.1137 58.7288L94.0801 58.8194C94.0581 58.8798 94.0345 58.9396 94.0112 58.9998L94.0025 59.0215L93.9778 59.0233C93.9451 59.0261 93.9127 59.0317 93.8809 59.04C93.8498 59.0478 93.82 59.0601 93.7924 59.0766C93.7675 59.0912 93.747 59.1123 93.7331 59.1377C93.7231 59.1591 93.7188 59.1828 93.7207 59.2063L93.7019 59.1979L93.7217 59.2225C93.7217 59.2172 93.7217 59.2116 93.7217 59.2063L93.8147 59.2479C93.852 59.2643 93.8883 59.2829 93.9257 59.2996C93.963 59.3162 93.9995 59.334 94.0361 59.3525C94.0726 59.3711 94.1092 59.3896 94.1452 59.4092C94.1065 59.3983 94.066 59.3875 94.0271 59.375C93.9882 59.3626 93.949 59.3504 93.9103 59.3377C93.8716 59.325 93.8327 59.3123 93.7943 59.2985L93.6788 59.2577L93.6624 59.2519L93.6587 59.2328C93.6501 59.1909 93.6541 59.1475 93.6701 59.1078C93.6879 59.0687 93.717 59.0358 93.7538 59.0135C93.7873 58.9926 93.8237 58.9767 93.8618 58.9664C93.8911 58.9582 93.9211 58.9526 93.9513 58.9497ZM93.9513 58.9497L93.9757 58.9476L93.9423 58.9712L93.9513 58.9497Z" stroke="#F48183" stroke-miterlimit="10"/>
<path d="M94.7594 58.2209L95.5274 58.5281C95.5274 58.5281 95.275 57.9725 94.7594 58.2209Z" fill="black"/>
<path d="M93.9834 57.8956L94.1333 57.9555C94.1333 57.9555 94.2096 57.532 93.9834 57.8956Z" fill="black"/>
<path d="M95.1066 59.3583C95.0382 59.331 94.9632 59.3246 94.8912 59.3399C94.8192 59.3552 94.7533 59.3915 94.7019 59.4442C94.6505 59.4969 94.6159 59.5637 94.6024 59.6361C94.5889 59.7085 94.5973 59.7832 94.6263 59.8509C94.6553 59.9186 94.7037 59.9761 94.7655 60.0163C94.8272 60.0564 94.8994 60.0774 94.9731 60.0765C95.0467 60.0756 95.1184 60.0529 95.1791 60.0112C95.2399 59.9696 95.2869 59.9108 95.3142 59.8425C95.3324 59.797 95.3415 59.7485 95.3409 59.6996C95.3403 59.6506 95.3301 59.6023 95.3108 59.5573C95.2915 59.5124 95.2636 59.4716 95.2285 59.4375C95.1935 59.4034 95.152 59.3765 95.1066 59.3583Z" fill="#FFA2A1"/>
<path d="M94.8375 58.5281C94.7596 58.4971 94.6521 58.581 94.5978 58.719C94.5435 58.857 94.5618 58.9913 94.6397 59.0225C94.7175 59.0538 94.825 58.9682 94.8796 58.8316C94.9342 58.6949 94.9154 58.5593 94.8375 58.5281Z" fill="black"/>
<path d="M93.9421 58.1028C93.9087 58.0892 93.8361 58.1891 93.7832 58.3255C93.7302 58.4619 93.7114 58.5837 93.745 58.5969C93.7787 58.6102 93.851 58.5106 93.9039 58.3742C93.9569 58.2378 93.9754 58.116 93.9421 58.1028Z" fill="black"/>
<path d="M96.2284 60.7328C96.2284 60.7328 96.5867 61.2684 97.0378 61.0091C98.3641 59.3554 98.7483 58.3983 98.309 57.5736C98.0727 57.1316 96.2284 60.7328 96.2284 60.7328Z" fill="#67201B"/>
<path d="M96.9726 59.6076C96.8979 59.6279 96.7904 59.6701 96.7411 59.7355C96.7411 59.7355 96.4159 60.1674 96.4816 60.5753C96.667 60.767 96.9077 60.9495 97.1845 60.959C97.4384 60.968 97.6588 60.8107 97.7697 60.5882C97.8194 60.4902 97.8459 60.3822 97.8473 60.2723C97.8476 60.2325 97.8434 60.1928 97.8346 60.1539C97.7525 59.7858 97.3431 59.5064 96.9726 59.6076Z" fill="#FFD4D3"/>
<path d="M97.0966 60.008C97.0339 60.0144 96.9733 60.0339 96.9186 60.0652L96.8783 60.0917C96.8656 60.1015 96.8545 60.1131 96.8426 60.1237L96.8251 60.1404L96.8105 60.1592L96.7819 60.1973L96.7057 60.2988L96.8315 60.2805C96.8629 60.2769 96.8946 60.2758 96.9263 60.2773C96.9596 60.2773 96.9938 60.281 97.0282 60.2837L97.1326 60.2935C97.1678 60.2972 97.2033 60.2998 97.2385 60.3025C97.2081 60.2824 97.1763 60.2647 97.1432 60.2495C97.1104 60.2341 97.0767 60.2208 97.0423 60.2095C97.0091 60.1985 96.9752 60.1896 96.9408 60.183C96.9147 60.2053 96.8908 60.2299 96.8693 60.2567L96.8198 60.1732C96.8587 60.1718 96.8976 60.1747 96.9358 60.182H96.9408C96.9516 60.1732 96.9629 60.1651 96.9747 60.1579C97.0171 60.1325 97.0631 60.1135 97.1111 60.1017C97.1627 60.0905 97.2152 60.0837 97.2679 60.0816C97.3237 60.0795 97.3796 60.0803 97.4353 60.084C97.3856 60.0532 97.3311 60.031 97.274 60.0183C97.2158 60.0055 97.1559 60.002 97.0966 60.008Z" fill="#FFA2A1"/>
<path d="M96.8208 60.1743L96.8704 60.2577C96.8918 60.231 96.9158 60.2063 96.9419 60.1841H96.9368C96.8987 60.1765 96.8598 60.1732 96.8208 60.1743Z" fill="#FFA2A1"/>
<path d="M95.0035 56.5066C95.0035 56.5066 94.3346 57.6772 96.8359 58.8499C96.6998 59.2265 96.2565 60.499 96.0854 60.9831C96.0218 61.1629 97.0044 59.8928 97.2242 59.33C97.274 59.2021 98.898 58.3308 98.1879 57.3572C97.6101 56.7897 95.9284 55.786 95.0035 56.5066Z" fill="#67201B"/>
<path d="M97.716 57.9505C97.6621 57.7584 97.5753 57.577 97.4596 57.4144C97.4277 57.3698 97.3916 57.3283 97.3519 57.2905C97.2761 57.2203 97.1824 57.1732 97.1021 57.255C97.0756 57.2815 97.037 57.3861 97.0592 57.4242C97.0174 57.3527 96.5624 56.7926 96.5634 56.9475C96.5645 57.1025 96.9135 57.9057 97.0621 58.0471C97.2107 58.1886 97.1977 57.7849 97.1977 57.7849C97.1977 57.7849 97.9583 59.3427 97.8169 58.4134C97.7941 58.2569 97.7603 58.1022 97.716 57.9505Z" fill="#935A52"/>
<path d="M96.2395 57.3564C96.2395 57.3564 96.0237 56.8821 95.953 56.9669C95.8823 57.0516 96.2419 57.7548 96.2795 57.6957C96.3171 57.6366 96.2488 57.46 96.2488 57.46C96.2488 57.46 96.6725 58.0691 96.6725 57.8753C96.6725 57.6814 96.4109 57.2611 96.4109 57.2611C96.1889 56.9473 96.2395 57.3564 96.2395 57.3564Z" fill="#935A52"/>
<path d="M93.8735 59.5665C93.7577 59.5644 93.6616 59.7055 93.659 59.8811C93.6568 59.9491 93.671 60.0166 93.7005 60.0779C93.7371 60.1523 93.7956 60.2013 93.8631 60.2021C93.9736 60.204 94.0679 60.0734 94.0763 59.9071C94.0763 59.9007 94.0763 59.8944 94.0763 59.8878C94.0803 59.7135 93.9887 59.5678 93.8735 59.5665Z" fill="white"/>
<path d="M96.7419 74.881C96.6434 74.881 93.7334 76.1787 93.7334 76.1787C93.7334 76.1787 97.0105 77.1104 97.6352 77.1705C98.0192 77.2046 98.4059 77.1503 98.7655 77.0116C98.7655 77.0116 98.3201 75.8993 98.3037 75.8497C98.2872 75.8002 96.8407 74.881 96.7419 74.881Z" fill="#101010"/>
<path d="M98.3164 75.8468C98.3016 75.8021 97.591 75.3553 97.5608 75.3362C97.3857 75.2263 96.81 74.8677 96.7419 74.8677C96.6434 74.8677 94.0263 76.0346 93.7281 76.1675L93.6947 76.1824L93.7299 76.1924C93.7628 76.2017 97.0152 77.1249 97.6339 77.1848C97.7091 77.1919 97.7825 77.1951 97.8537 77.1951C98.1673 77.1949 98.4781 77.1371 98.7708 77.0248L98.7825 77.0198L98.7777 77.0079C98.7732 76.9967 98.3325 75.895 98.3164 75.8468ZM97.6365 77.1583C97.0539 77.1022 94.1277 76.2774 93.7723 76.1768C94.6026 75.806 96.659 74.8963 96.7419 74.8942C96.7809 74.8942 97.0997 75.0796 97.5364 75.3518C97.9279 75.5976 98.274 75.8286 98.2918 75.855C98.3074 75.9019 98.6977 76.8778 98.7489 77.0055C98.3941 77.1386 98.0141 77.1908 97.6365 77.1583Z" fill="black"/>
<path d="M93.8383 81.874L94.0991 83.0898C95.6423 83.9932 97.1876 83.2789 97.8577 82.8812L97.6193 81.5337L93.8383 81.874Z" fill="#A3A3A3"/>
<path d="M93.8221 81.8623L94.0869 83.0928V83.0983L94.092 83.1015C94.5789 83.3903 95.1348 83.5422 95.7009 83.5409C96.5926 83.5409 97.3778 83.1809 97.8638 82.8925L97.8717 82.888L97.6291 81.5194L93.8221 81.8623ZM94.1108 83.0806L93.8542 81.8851L97.608 81.5472L97.8431 82.8737C97.082 83.325 95.5907 83.9442 94.1108 83.0814V83.0806Z" fill="black"/>
<path d="M100.726 94.0602L100.911 95.6648L101.116 97.4443C101.119 97.4675 101.129 97.4893 101.144 97.5067C101.16 97.5242 101.18 97.5365 101.203 97.5419C101.226 97.5473 101.25 97.5456 101.271 97.537C101.293 97.5284 101.312 97.5133 101.324 97.4938L104.63 92.4659L102.636 91.1555L100.726 94.0602Z" fill="#EE9B2A"/>
<path d="M103.584 92.0922C103.45 92.0046 103.294 91.9584 103.135 91.9596C102.975 91.9608 102.82 92.0092 102.688 92.0988C102.556 92.1885 102.453 92.3152 102.393 92.463C102.333 92.6108 102.319 92.7731 102.351 92.9293C102.383 93.0855 102.461 93.2287 102.575 93.3406C102.688 93.4525 102.833 93.5282 102.989 93.5581C103.146 93.588 103.308 93.5708 103.455 93.5086C103.602 93.4464 103.727 93.3421 103.815 93.2087C103.932 93.03 103.974 92.812 103.93 92.6027C103.887 92.3933 103.762 92.2097 103.584 92.0922Z" fill="white"/>
<path d="M100.911 95.6648L101.116 97.4443C101.119 97.4675 101.128 97.4893 101.144 97.5067C101.16 97.5242 101.18 97.5364 101.203 97.5419C101.225 97.5473 101.249 97.5455 101.271 97.537C101.293 97.5284 101.311 97.5133 101.324 97.4938L102.552 95.6246C101.807 95.3441 101.209 95.5263 100.911 95.6648Z" fill="white"/>
<path d="M104.605 92.4442L101.262 97.532L101.647 97.7852L104.99 92.6974L104.605 92.4442Z" fill="#784D03"/>
<path d="M100.829 95.1322L100.875 95.181C100.982 95.0929 101.108 95.0305 101.243 94.9984C101.378 94.9663 101.519 94.9653 101.654 94.9956L101.668 94.9297C101.16 94.8229 100.843 95.1195 100.829 95.1322Z" fill="black"/>
<path d="M100.795 94.6248L100.842 94.6735C100.949 94.5854 101.075 94.5229 101.21 94.4908C101.345 94.4587 101.485 94.4578 101.62 94.4882L101.634 94.4219C101.127 94.3155 100.808 94.6121 100.795 94.6248Z" fill="black"/>
<path d="M100.882 83.1105C100.735 82.9753 100.543 82.8984 100.343 82.8944C100.229 82.8921 100.115 82.9042 100.004 82.9304C99.4846 83.0488 99.0111 83.4185 99.0111 83.4185C99.1337 81.8173 99.0865 80.4237 98.9316 79.2177C98.31 74.355 95.9472 72.5491 95.9472 72.5491L91.0416 74.0676C89.5127 77.9758 88.6724 81.2447 88.2121 83.7302C87.5638 87.2314 87.6702 89.1811 87.6702 89.1811C87.6702 89.1811 86.7531 90.4629 87.5818 90.8024C88.2788 91.089 89.0251 90.7691 89.7945 90.5808C90.3151 90.4528 90.8467 90.3856 91.3806 90.6072C91.691 90.7365 92.0737 90.9115 92.499 91.081C92.5276 91.0924 92.5562 91.1038 92.5853 91.1149L92.589 91.1165L92.6433 91.1374L92.6462 91.1388C94.0147 91.6661 95.7748 92.0813 97.0102 90.7828C97.1631 90.6171 97.294 90.4324 97.3998 90.2333C97.903 89.3265 98.1149 88.1631 99.6411 87.7616C100.743 87.4702 101.099 86.8481 101.1 86.199C101.1 85.7509 100.931 85.2901 100.722 84.9175C100.207 84.0049 101.545 83.7281 100.882 83.1105Z" fill="#204184"/>
<path d="M95.9482 72.5488L91.0416 74.0676C89.5127 77.9758 88.6723 81.2447 88.2123 83.7302C88.7296 83.7861 89.3972 83.3041 90.1758 82.5877C91.1584 81.6838 91.4335 80.1512 93.379 79.2275C95.3245 78.3037 95.7962 80.6226 97.9581 79.8758C98.4025 79.7224 98.7158 79.4907 98.9327 79.2182C98.3111 74.355 95.9482 72.5488 95.9482 72.5488Z" fill="#375FA0"/>
<path d="M96.0756 74.244C96.0756 74.244 96.1415 74.332 96.2446 74.4938L96.283 74.4694C96.1789 74.306 96.1124 74.2175 96.1119 74.2168L96.0756 74.244Z" fill="white"/>
<path d="M97.5502 82.9595L97.5049 82.9564C97.498 83.0604 97.4925 83.1621 97.4877 83.2588L97.533 83.2609C97.5378 83.1645 97.5433 83.0631 97.5502 82.9595Z" fill="white"/>
<path d="M97.5719 82.6582C97.5796 82.5612 97.5881 82.4598 97.5984 82.357L97.5531 82.3528C97.5439 82.4561 97.5351 82.5575 97.5266 82.6545L97.5719 82.6582Z" fill="white"/>
<path d="M96.9413 75.832C96.9805 75.9239 97.0189 76.0174 97.0555 76.1117L97.0979 76.0952C97.0611 76.0012 97.0224 75.9067 96.9832 75.8143L96.9413 75.832Z" fill="white"/>
<path d="M96.4024 74.7517C96.4519 74.8367 96.5014 74.9255 96.5499 75.0166L96.5899 74.9951C96.5412 74.9048 96.4914 74.8158 96.4416 74.7303L96.4024 74.7517Z" fill="white"/>
<path d="M96.6887 75.2835C96.7329 75.3725 96.7769 75.4641 96.819 75.556L96.8603 75.537C96.8179 75.4448 96.7737 75.3516 96.7279 75.2634L96.6887 75.2835Z" fill="white"/>
<path d="M97.7671 79.6443H97.8124C97.8103 79.5437 97.8066 79.442 97.8015 79.3413L97.7563 79.3437C97.7613 79.4438 97.765 79.5445 97.7671 79.6443Z" fill="white"/>
<path d="M97.8142 79.947H97.769C97.769 80.0466 97.7655 80.148 97.7618 80.2487L97.8071 80.2503C97.8108 80.1486 97.8135 80.0466 97.8142 79.947Z" fill="white"/>
<path d="M97.7144 78.4356C97.7004 78.3366 97.6845 78.2359 97.6673 78.1361L97.6228 78.1438C97.6397 78.2431 97.6553 78.3434 97.6694 78.442L97.7144 78.4356Z" fill="white"/>
<path d="M97.72 80.8499L97.7653 80.8544C97.7751 80.7545 97.7835 80.6528 97.7917 80.5522L97.7465 80.549C97.7385 80.6491 97.7298 80.7503 97.72 80.8499Z" fill="white"/>
<path d="M97.7364 79.0418L97.7814 79.0381C97.7732 78.9375 97.7634 78.836 97.7523 78.7365L97.7073 78.7412C97.7176 78.8405 97.7282 78.9406 97.7364 79.0418Z" fill="white"/>
<path d="M97.1614 76.3945C97.1951 76.4888 97.2282 76.5849 97.2591 76.68L97.3023 76.666C97.2711 76.5704 97.238 76.474 97.2041 76.3792L97.1614 76.3945Z" fill="white"/>
<path d="M97.6117 77.8381C97.5915 77.7393 97.5701 77.6398 97.547 77.5418L97.5031 77.5521C97.5256 77.6496 97.5473 77.7489 97.5672 77.8471L97.6117 77.8381Z" fill="white"/>
<path d="M98.7391 85.3232L98.7634 85.3614C98.8516 85.3049 98.9366 85.2469 99.0153 85.1924L98.9888 85.155C98.9112 85.2093 98.8267 85.2671 98.7391 85.3232Z" fill="white"/>
<path d="M98.4401 85.4985C98.3669 85.5385 98.2884 85.5677 98.207 85.5854L98.2155 85.6299C98.3013 85.6115 98.384 85.5808 98.461 85.5385C98.4748 85.5314 98.4875 85.5242 98.502 85.5165L98.4806 85.4768L98.4401 85.4985Z" fill="white"/>
<path d="M99.2388 84.9834L99.2653 85.0213C99.3633 84.9554 99.4441 84.9045 99.5198 84.8624L99.4973 84.8232C99.4197 84.8659 99.3379 84.9172 99.2388 84.9834Z" fill="white"/>
<path d="M97.7388 85.3359L97.6988 85.3574C97.7455 85.452 97.8176 85.5317 97.9072 85.5875L97.9297 85.5481C97.8476 85.4964 97.7815 85.423 97.7388 85.3359Z" fill="white"/>
<path d="M97.3926 76.9544L97.3489 76.9674C97.3773 77.0632 97.4045 77.1612 97.4302 77.2587L97.4742 77.247C97.4485 77.1501 97.421 77.0518 97.3926 76.9544Z" fill="white"/>
<path d="M100.368 84.6217C100.449 84.6238 100.529 84.6322 100.608 84.6466L100.616 84.6021C100.535 84.587 100.452 84.5782 100.369 84.5756L100.368 84.6217Z" fill="white"/>
<path d="M99.7703 84.6876L99.7873 84.7297C99.8793 84.6922 99.9747 84.6639 100.072 84.6452L100.064 84.6007C99.9635 84.6199 99.8651 84.649 99.7703 84.6876Z" fill="white"/>
<path d="M97.5221 84.1661L97.4768 84.1677C97.4805 84.2737 97.4861 84.3762 97.4938 84.4707L97.5391 84.467C97.5322 84.3732 97.5258 84.2721 97.5221 84.1661Z" fill="white"/>
<path d="M97.6858 81.1497C97.6728 81.2519 97.6604 81.352 97.6487 81.45L97.6938 81.4553C97.7054 81.3576 97.7178 81.2577 97.7308 81.1555L97.6858 81.1497Z" fill="white"/>
<path d="M97.5219 83.5628L97.4763 83.5615C97.4737 83.6675 97.4721 83.7684 97.4721 83.8645H97.5174C97.5176 83.7689 97.519 83.6672 97.5219 83.5628Z" fill="white"/>
<path d="M97.5817 82.0517L97.6267 82.0562C97.6368 81.9584 97.6475 81.8582 97.6588 81.7556L97.6138 81.7506C97.6025 81.8533 97.5918 81.9537 97.5817 82.0517Z" fill="white"/>
<path d="M97.528 84.7726C97.5427 84.8732 97.5631 84.9728 97.5891 85.0711L97.6328 85.0592C97.6073 84.9626 97.5872 84.8646 97.5727 84.7657L97.528 84.7726Z" fill="white"/>
<path d="M91.3994 89.9155C91.1345 89.4096 91.1494 88.8124 91.0869 88.2581C91.0286 87.743 90.9592 86.9271 90.5572 86.5348C90.335 86.3187 90.259 86.5693 90.3064 86.7803C90.4685 87.5026 90.7487 88.9324 90.2179 90.0524C90.1199 90.259 89.9747 90.4398 89.7942 90.5802C90.3149 90.4523 90.8464 90.385 91.3803 90.6067C91.6907 90.736 92.0734 90.911 92.4987 91.0805C92.004 90.8649 91.6435 90.3816 91.3994 89.9155Z" fill="#133770"/>
<path d="M99.5911 87.1932C98.0285 87.1932 96.2885 86.6198 96.4959 84.7022C96.7366 82.4775 96.9234 82.0345 96.609 82.3099C96.3608 82.5271 95.7734 84.0983 95.98 86.1172C96.1519 87.7957 97.6103 88.5108 97.6013 89.1829C97.5974 89.492 97.4816 89.8911 97.4006 90.2333C97.9038 89.3265 98.1156 88.1631 99.6419 87.7616C100.744 87.4702 101.1 86.8481 101.1 86.199C100.919 86.6474 100.511 87.1932 99.5911 87.1932Z" fill="#133770"/>
<path d="M98.1246 64.8248C98.068 64.6723 98.0033 64.5228 97.9308 64.377C97.0216 62.597 96.1778 62.1201 95.5473 62.0565C95.5033 62.052 95.4599 62.0496 95.418 62.0491C95.105 62.0441 94.7906 62.0589 94.4781 62.0756C94.2864 62.0859 94.0896 62.0621 93.8973 62.0803C93.8502 62.0847 93.8034 62.0919 93.7572 62.1021C93.222 62.2234 92.8163 62.6667 92.4953 63.0843C92.4069 63.1994 92.3247 63.3191 92.2492 63.4429C92.013 63.8301 91.8467 64.2411 91.6931 64.6826C91.4547 65.3686 91.2532 66.1723 91.0877 67.0248C90.9515 67.7216 90.84 68.4505 90.7526 69.1753C90.6512 70.0228 90.5816 70.8618 90.5455 71.6383C90.5421 71.7217 90.5387 71.8041 90.5352 71.8859C90.5304 72.021 90.5259 72.1542 90.523 72.2832C90.4875 73.7853 90.3737 74.9411 90.617 75.2613C90.8321 75.5433 91.1896 75.7645 91.6353 75.9329C92.2927 76.1829 93.1449 76.3204 94.0162 76.3762C94.1833 76.3871 94.352 76.3948 94.5194 76.3998C94.9612 76.4131 95.4003 76.4067 95.8139 76.3855C97.2046 76.314 97.8574 76.4472 98.2997 76.6842H98.3021C98.4672 76.7762 98.6218 76.8859 98.7632 77.0113C100.26 76.667 99.8522 72.15 99.1194 68.5493C98.8077 67.0066 98.4327 65.6307 98.1246 64.8248Z" fill="#E54357"/>
<path d="M92.6118 62.9376C92.6118 62.9376 93.8613 63.6479 95.2212 63.6426C93.9251 63.0944 92.8377 62.7038 92.8377 62.7038L92.6118 62.9376Z" fill="#932534"/>
<path d="M90.4714 74.2856L90.4674 74.2305C90.467 74.249 90.4683 74.2674 90.4714 74.2856Z" fill="#932534"/>
<path d="M98.2401 75.6008C96.5963 76.243 93.3441 75.6522 93.0567 75.6008C92.7773 75.5507 90.5757 74.9469 90.4714 74.2856C90.5273 75.078 90.4306 75.4294 91.6367 75.9332C92.8713 76.4483 96.2432 76.4806 96.8945 76.3746C97.5457 76.2687 98.7767 76.7036 98.7647 77.0126C99.162 76.7841 100.017 76.6768 99.6321 72.5104C99.6509 72.7376 99.8005 74.9914 98.2401 75.6008Z" fill="#932534"/>
<path d="M99.6329 72.511C99.6329 72.4986 99.6313 72.4919 99.6313 72.4919L99.6329 72.511Z" fill="#932534"/>
<path d="M95.1373 64.2258C95.0401 64.1667 93.7734 63.8815 92.2506 63.4419C92.0143 63.8291 91.848 64.2401 91.6944 64.6816C91.4561 65.3675 91.0373 67.4443 90.8718 68.2969C91.38 67.2055 91.6528 66.8402 91.8946 66.8903C92.6682 67.0513 93.4617 67.0116 93.9585 66.9067C95.6129 66.5582 96.6768 65.1691 95.1373 64.2258Z" fill="#932534"/>
<path d="M95.2212 63.6426C95.0014 63.5075 88.8093 62.2249 87.1853 60.592C85.5613 58.959 84.6545 59.4343 84.6545 59.4343L82.7935 61.668C82.7935 61.668 82.9548 63.4914 84.3523 63.9456C85.7499 64.3998 91.6515 67.1938 93.8753 66.7407C96.0992 66.2875 96.7607 64.5865 95.2212 63.6426Z" fill="#E54357"/>
<path d="M49.4548 38.8777L46.2277 38.2471L43.7849 39.8891C43.6171 40.0022 43.501 40.1773 43.4621 40.3759C43.4232 40.5745 43.4646 40.7804 43.5773 40.9485L47.2895 46.4716C47.3453 46.5552 47.4171 46.6268 47.5007 46.6826C47.5843 46.7383 47.678 46.7771 47.7766 46.7965C47.8751 46.816 47.9766 46.8159 48.0751 46.7961C48.1736 46.7764 48.2672 46.7374 48.3507 46.6814L52.0902 44.1676C52.1735 44.1114 52.245 44.0394 52.3005 43.9556C52.356 43.8719 52.3944 43.778 52.4135 43.6793C52.4327 43.5807 52.4322 43.4793 52.4121 43.3808C52.3921 43.2823 52.3527 43.1888 52.2965 43.1056L49.4548 38.8777Z" fill="#E0E0E0"/>
<path d="M49.5499 38.3573L46.3228 37.7267L43.88 39.3687C43.7122 39.4818 43.5961 39.6569 43.5572 39.8555C43.5182 40.0541 43.5596 40.26 43.6723 40.4281L47.3845 45.9502C47.4404 46.0337 47.5122 46.1054 47.5958 46.1611C47.6793 46.2169 47.7731 46.2556 47.8717 46.2751C47.9702 46.2946 48.0717 46.2944 48.1702 46.2747C48.2687 46.2549 48.3623 46.2159 48.4458 46.1599L52.1852 43.6461C52.2686 43.59 52.3401 43.518 52.3955 43.4342C52.451 43.3504 52.4895 43.2565 52.5086 43.1579C52.5278 43.0592 52.5273 42.9578 52.5072 42.8593C52.4871 42.7609 52.4478 42.6674 52.3916 42.5841L49.5499 38.3573Z" fill="#DC69A8"/>
<path d="M47.6192 39.6553L49.5499 38.3573L46.3228 37.7267L47.6192 39.6553Z" fill="#F7B0DB"/>
<path d="M46.9984 40.1597L45.219 41.3559L45.9425 42.4322L47.722 41.236L46.9984 40.1597Z" fill="white"/>
<path d="M49.9369 40.3081L46.2022 42.8187L46.4529 43.1917L50.1876 40.6811L49.9369 40.3081Z" fill="white"/>
<path d="M50.4127 41.0157L46.678 43.5263L46.9287 43.8993L50.6634 41.3887L50.4127 41.0157Z" fill="white"/>
<path d="M50.8881 41.7222L47.1534 44.2327L47.4042 44.6057L51.1389 42.0952L50.8881 41.7222Z" fill="white"/>
<path d="M51.364 42.4305L47.6293 44.9411L47.88 45.3141L51.6147 42.8035L51.364 42.4305Z" fill="white"/>
<path d="M44.9298 40.5547C44.8958 40.5774 44.8693 40.6098 44.8537 40.6476C44.8381 40.6855 44.8341 40.7271 44.8422 40.7672C44.8502 40.8073 44.87 40.8441 44.899 40.873C44.928 40.9019 44.9649 40.9215 45.005 40.9294C45.0452 40.9373 45.0868 40.9331 45.1245 40.9174C45.1623 40.9016 45.1946 40.875 45.2172 40.841C45.2399 40.8069 45.2519 40.7668 45.2518 40.7259C45.2517 40.685 45.2394 40.645 45.2166 40.6111C45.2015 40.5885 45.1821 40.5692 45.1595 40.5541C45.1369 40.5391 45.1115 40.5287 45.0849 40.5234C45.0582 40.5182 45.0308 40.5182 45.0042 40.5236C44.9776 40.529 44.9523 40.5395 44.9298 40.5547Z" fill="#32539B"/>
<path d="M45.5643 40.1283C45.5304 40.1511 45.5041 40.1834 45.4886 40.2212C45.4731 40.259 45.4691 40.3006 45.4772 40.3406C45.4853 40.3806 45.5051 40.4174 45.5341 40.4462C45.563 40.475 45.5999 40.4945 45.64 40.5024C45.6801 40.5102 45.7216 40.506 45.7593 40.4902C45.797 40.4745 45.8292 40.4479 45.8518 40.4139C45.8744 40.3799 45.8864 40.3399 45.8862 40.2991C45.8861 40.2582 45.8739 40.2183 45.8511 40.1844C45.836 40.1619 45.8166 40.1425 45.794 40.1275C45.7714 40.1124 45.746 40.102 45.7194 40.0968C45.6927 40.0916 45.6653 40.0917 45.6387 40.0971C45.6121 40.1025 45.5868 40.1131 45.5643 40.1283Z" fill="#32539B"/>
<path d="M56.3262 50.1047C56.2996 49.9755 56.2468 49.8532 56.1711 49.7453C56.0953 49.6373 55.9982 49.5461 55.8858 49.4771C55.7734 49.4082 55.648 49.3631 55.5175 49.3445C55.3869 49.3259 55.254 49.3344 55.1268 49.3692L50.5904 50.614C50.4178 50.6613 50.2617 50.7557 50.1397 50.8867C50.0177 51.0176 49.9345 51.18 49.8994 51.3555L49.6518 52.6026L45.6938 53.6885C45.5658 53.7237 45.4464 53.785 45.3432 53.8685C45.2399 53.952 45.155 54.056 45.0938 54.1738C45.0325 54.2916 44.9963 54.4208 44.9873 54.5533C44.9783 54.6858 44.9968 54.8187 45.0415 54.9438L46.8136 59.6076C46.8958 59.8359 47.0612 60.0249 47.2767 60.1367C47.4921 60.2485 47.7418 60.275 47.9759 60.2109L56.9078 57.7622C57.1439 57.6972 57.3465 57.5448 57.4743 57.336C57.6022 57.1272 57.6459 56.8775 57.5964 56.6377L56.3262 50.1047Z" fill="#AF6812"/>
<path d="M53.9149 47.1809C53.9005 47.1293 53.8761 47.081 53.8429 47.0389C53.8098 46.9967 53.7687 46.9616 53.7219 46.9354C53.6751 46.9092 53.6236 46.8926 53.5704 46.8864C53.5172 46.8802 53.4632 46.8846 53.4117 46.8994L45.0429 49.2501C44.9914 49.2645 44.9433 49.2889 44.9013 49.3219C44.8594 49.355 44.8243 49.3959 44.7981 49.4425C44.772 49.4891 44.7553 49.5404 44.749 49.5934C44.7427 49.6465 44.7469 49.7002 44.7613 49.7517L47.1923 58.4076C47.2067 58.4592 47.2312 58.5074 47.2644 58.5495C47.2975 58.5916 47.3386 58.6267 47.3854 58.6529C47.4321 58.6791 47.4836 58.6957 47.5368 58.7019C47.59 58.7081 47.6439 58.7038 47.6955 58.6891L56.0643 56.3384C56.1158 56.3241 56.164 56.2998 56.2061 56.2668C56.2482 56.2338 56.2833 56.1928 56.3095 56.1462C56.3357 56.0996 56.3524 56.0483 56.3587 55.9952C56.365 55.9421 56.3607 55.8883 56.3461 55.8368L53.9149 47.1809Z" fill="#39A08F"/>
<path d="M56.9505 51.0899C56.9215 50.9494 56.8641 50.8164 56.7818 50.699C56.6994 50.5816 56.5938 50.4823 56.4716 50.4073C56.3493 50.3323 56.213 50.2832 56.071 50.263C55.9291 50.2428 55.7844 50.2519 55.6461 50.2898L50.7125 51.6426C50.5247 51.6941 50.3549 51.7968 50.2222 51.9394C50.0895 52.0819 49.9991 52.2585 49.9611 52.4495L49.6918 53.8058L45.3874 54.9859C45.2479 55.0241 45.1179 55.0907 45.0054 55.1816C44.8929 55.2725 44.8005 55.3857 44.7338 55.514C44.6672 55.6424 44.6278 55.7831 44.6182 55.9274C44.6086 56.0717 44.6289 56.2164 44.6779 56.3524L46.2733 60.5734L46.3067 60.5676C46.4407 60.5427 46.5267 60.5859 46.5681 60.6619C47.2452 60.4439 48.4357 60.378 49.3149 60.1086C50.4654 59.7561 50.8245 59.6849 50.847 60.0138C50.8642 60.2922 49.2683 60.9895 48.7447 61.1892C49.1481 61.0732 50.1682 60.8131 50.4561 60.7291C50.8242 60.62 50.7869 61.128 50.4747 61.3256C50.1624 61.5231 48.4243 62.03 48.4243 62.03L48.4548 62.0237L57.6091 59.5138C57.8661 59.4434 58.0867 59.2778 58.226 59.0506C58.3653 58.8235 58.4129 58.5518 58.3591 58.2908L56.9505 51.0899Z" fill="#DD902A"/>
<path d="M56.7155 50.3232C56.6889 50.194 56.6361 50.0717 56.5604 49.9637C56.4846 49.8558 56.3875 49.7645 56.2751 49.6956C56.1627 49.6267 56.0373 49.5815 55.9068 49.563C55.7762 49.5444 55.6433 49.5528 55.5161 49.5877L50.9797 50.8324C50.807 50.8797 50.651 50.9741 50.5289 51.1051C50.4069 51.2361 50.3237 51.3984 50.2887 51.574L50.0411 52.8208L46.0831 53.9067C45.9549 53.9418 45.8353 54.0031 45.7319 54.0866C45.6285 54.1702 45.5435 54.2742 45.4822 54.3922C45.421 54.5102 45.3848 54.6396 45.3759 54.7723C45.3671 54.9049 45.3858 55.038 45.4308 55.1631L47.2031 59.8274C47.2852 60.0558 47.4505 60.2449 47.666 60.3568C47.8814 60.4686 48.1311 60.4951 48.3652 60.4309L57.2971 57.982C57.5333 57.9171 57.7358 57.7647 57.8637 57.5559C57.9916 57.347 58.0352 57.0973 57.9857 56.8575L56.7155 50.3232Z" fill="#EF9620"/>
<path d="M52.7316 52.5208L45.8022 54.4203L46.2821 56.1709L53.2115 54.2714L52.7316 52.5208Z" fill="#63C6B3"/>
<path d="M54.1344 46.7031C54.1201 46.6516 54.0957 46.6034 54.0627 46.5614C54.0296 46.5193 53.9886 46.4842 53.942 46.458C53.8954 46.4318 53.8441 46.4151 53.7909 46.4088C53.7378 46.4025 53.684 46.4068 53.6326 46.4213L45.2637 48.772C45.2123 48.7865 45.1642 48.8109 45.1222 48.844C45.0802 48.877 45.0451 48.918 45.019 48.9646C44.9928 49.0112 44.9761 49.0625 44.9698 49.1156C44.9635 49.1687 44.9677 49.2225 44.9822 49.2739L47.4131 57.9296C47.4276 57.9812 47.4521 58.0294 47.4852 58.0715C47.5184 58.1136 47.5595 58.1488 47.6062 58.1749C47.653 58.2011 47.7044 58.2178 47.7576 58.2241C47.8109 58.2303 47.8648 58.226 47.9163 58.2113L56.2852 55.8607C56.3368 55.8463 56.3852 55.8219 56.4274 55.7888C56.4695 55.7557 56.5047 55.7146 56.5309 55.6678C56.5571 55.621 56.5738 55.5695 56.58 55.5162C56.5862 55.463 56.5817 55.409 56.567 55.3575L54.1344 46.7031Z" fill="#91EDDB"/>
<path d="M51.8952 47.5323L45.6286 49.2948L45.8575 50.1086L52.1241 48.3461L51.8952 47.5323Z" fill="#39A08F"/>
<path d="M53.3497 47.3191C53.2947 47.2882 53.232 47.2736 53.1689 47.2769C53.1059 47.2801 53.0451 47.3013 52.9935 47.3377C52.942 47.3742 52.9019 47.4246 52.8778 47.483C52.8538 47.5413 52.8468 47.6053 52.8576 47.6675C52.8685 47.7297 52.8968 47.7876 52.9392 47.8343C52.9816 47.8811 53.0365 47.9148 53.0973 47.9317C53.1582 47.9485 53.2225 47.9478 53.283 47.9295C53.3434 47.9112 53.3974 47.8762 53.4387 47.8284L53.6771 47.9608L53.7425 47.8446L53.5041 47.7106C53.5272 47.6375 53.5244 47.5587 53.4963 47.4875C53.4682 47.4162 53.4165 47.3568 53.3497 47.3191ZM53.3611 47.7082C53.3417 47.7427 53.3126 47.7707 53.2773 47.7886C53.242 47.8065 53.2022 47.8136 53.1629 47.8089C53.1236 47.8042 53.0865 47.788 53.0564 47.7623C53.0263 47.7366 53.0046 47.7025 52.9938 47.6644C52.9831 47.6263 52.9839 47.5859 52.9962 47.5482C53.0084 47.5106 53.0315 47.4774 53.0626 47.4529C53.0937 47.4284 53.1314 47.4136 53.1708 47.4105C53.2103 47.4074 53.2498 47.4161 53.2843 47.4354C53.3304 47.4614 53.3643 47.5046 53.3787 47.5556C53.3931 47.6065 53.3868 47.6611 53.3611 47.7074V47.7082Z" fill="#39A08F"/>
<path d="M50.417 50.0725L46.2473 51.2438L46.3607 51.6474L50.5304 50.4761L50.417 50.0725Z" fill="#63C6B3"/>
<path d="M52.4349 50.3312L46.3956 52.0298L46.5088 52.4322L52.5481 50.7337L52.4349 50.3312Z" fill="#63C6B3"/>
<path d="M54.4529 53.978L47.5596 55.9144L47.673 56.318L54.5663 54.3817L54.4529 53.978Z" fill="#8C8C8C" stroke="black" stroke-miterlimit="10"/>
<path d="M51.0876 55.856L47.8028 56.7787L47.9162 57.1823L51.2009 56.2596L51.0876 55.856Z" fill="#8C8C8C" stroke="black" stroke-miterlimit="10"/>
<path d="M54.6094 50.9266L47.5483 52.91L47.6616 53.3137L54.7227 51.3302L54.6094 50.9266Z" fill="#63C6B3"/>
<path d="M46.9677 53.0894C46.9306 53.0998 46.8973 53.121 46.8723 53.1502C46.8472 53.1795 46.8313 53.2156 46.8267 53.2538C46.8221 53.2921 46.8289 53.3309 46.8464 53.3653C46.8638 53.3997 46.8911 53.4281 46.9247 53.447C46.9583 53.4659 46.9968 53.4744 47.0352 53.4714C47.0736 53.4685 47.1103 53.4542 47.1407 53.4304C47.171 53.4065 47.1935 53.3743 47.2055 53.3376C47.2175 53.301 47.2183 53.2616 47.2079 53.2245C47.1939 53.1747 47.1608 53.1325 47.1158 53.1072C47.0707 53.0819 47.0175 53.0755 46.9677 53.0894Z" fill="#63C6B3"/>
<path d="M54.8524 51.7906L47.7913 53.774L47.9046 54.1776L54.9657 52.1942L54.8524 51.7906Z" fill="#63C6B3"/>
<path d="M47.2105 53.9541C47.1735 53.9645 47.1404 53.9857 47.1154 54.015C47.0903 54.0442 47.0746 54.0802 47.07 54.1185C47.0655 54.1567 47.0724 54.1954 47.0898 54.2297C47.1073 54.264 47.1345 54.2924 47.1681 54.3112C47.2016 54.33 47.24 54.3385 47.2784 54.3355C47.3168 54.3325 47.3534 54.3182 47.3836 54.2945C47.4139 54.2707 47.4364 54.2384 47.4484 54.2018C47.4603 54.1653 47.4611 54.1259 47.4507 54.0889C47.4367 54.0392 47.4035 53.9971 47.3585 53.9719C47.3135 53.9466 47.2603 53.9402 47.2105 53.9541Z" fill="#63C6B3"/>
<path d="M55.0949 52.6559L48.0338 54.6393L48.1472 55.043L55.2083 53.0595L55.0949 52.6559Z" fill="#E0E0E0" stroke="black" stroke-miterlimit="10"/>
<path d="M47.4534 54.8188C47.4163 54.8292 47.3832 54.8504 47.3582 54.8797C47.3332 54.9089 47.3174 54.9449 47.3129 54.9832C47.3083 55.0214 47.3152 55.0601 47.3327 55.0944C47.3501 55.1287 47.3773 55.1571 47.4109 55.1759C47.4445 55.1947 47.4829 55.2032 47.5212 55.2002C47.5596 55.1972 47.5963 55.1829 47.6265 55.1592C47.6568 55.1354 47.6793 55.1031 47.6912 55.0665C47.7032 55.03 47.704 54.9906 47.6936 54.9536C47.6796 54.9039 47.6464 54.8618 47.6014 54.8365C47.5564 54.8112 47.5031 54.8048 47.4534 54.8188Z" fill="#E0E0E0" stroke="black" stroke-miterlimit="10"/>
<path d="M57.5265 51.2559C57.4976 51.1155 57.4402 50.9824 57.3578 50.865C57.2754 50.7477 57.1699 50.6484 57.0476 50.5734C56.9253 50.4985 56.789 50.4494 56.647 50.4292C56.5051 50.409 56.3605 50.4182 56.2222 50.4561L51.2885 51.8086C51.1007 51.8602 50.931 51.9631 50.7983 52.1056C50.6656 52.2482 50.5752 52.4249 50.5372 52.6159L50.2678 53.9718L45.9634 55.1522C45.824 55.1904 45.694 55.257 45.5815 55.3479C45.469 55.4388 45.3766 55.5519 45.31 55.6802C45.2433 55.8086 45.204 55.9493 45.1943 56.0935C45.1847 56.2378 45.205 56.3825 45.2539 56.5185L47.2076 61.6871C47.2971 61.9355 47.4769 62.141 47.7112 62.2627C47.9455 62.3843 48.2171 62.4131 48.4717 62.3433L58.1854 59.6801C58.4423 59.6096 58.6628 59.4439 58.802 59.2168C58.9412 58.9897 58.9888 58.7181 58.9351 58.4571L57.5265 51.2559Z" fill="#FBB954"/>
<path d="M54.4885 55.1466C54.4127 55.1685 54.3386 55.196 54.2669 55.229C53.9379 54.8507 53.5011 54.5822 53.015 54.4593C52.529 54.3365 52.017 54.3652 51.5478 54.5418C51.0786 54.7183 50.6746 55.0341 50.3901 55.4469C50.1056 55.8596 49.9542 56.3496 49.9561 56.8509C49.7519 56.8616 49.5527 56.9182 49.3734 57.0165C49.194 57.1147 49.0391 57.2521 48.92 57.4184C48.801 57.5847 48.721 57.7756 48.6858 57.9771C48.6506 58.1785 48.6613 58.3853 48.7169 58.5821C48.6109 58.6116 48.5129 58.6647 48.4303 58.7374C48.3477 58.8101 48.2826 58.9006 48.2399 59.002C48.1971 59.1034 48.1779 59.2132 48.1835 59.3231C48.1892 59.433 48.2196 59.5402 48.2725 59.6367L49.2824 59.353L49.6444 59.2514L51.0216 58.865L51.2639 58.7969L54.0494 58.0146L54.6556 57.8443L56.358 57.3662C56.4901 57.09 56.5397 56.7815 56.5009 56.4778C56.4622 56.1741 56.3367 55.888 56.1395 55.6538C55.9423 55.4196 55.6818 55.2471 55.3891 55.1572C55.0964 55.0673 54.784 55.0636 54.4893 55.1466H54.4885Z" fill="#FFF3A0"/>
<path d="M52.0261 55.6999L51.1595 57.5278L51.8277 57.34L52.3073 59.048L53.5293 58.7047L53.0497 56.9971L53.7176 56.8093L52.0261 55.6999Z" fill="#D92763"/>
<path d="M38.6635 72.927L41.2054 79.0964L40.15 79.3604L42.1538 83.9122L43.1212 83.7461L49.5652 99.3861L61.4257 97.948L46.2823 71.1102L38.6635 72.927Z" fill="#A27CCF"/>
<path d="M79.2058 71.6921L74.3714 60.9068L73.23 61.3843L72.5681 59.879L49.0186 70.3944L61.4257 97.948L84.7016 87.4774L77.9984 72.2305L79.2058 71.6921Z" fill="#204083"/>
<path d="M40.8733 62.899L45.4541 73.5104L44.2102 73.0287L46.3588 78.4038L48.1401 79.7323L52.6884 90.2683L61.4257 97.948L49.0186 70.3944L40.8733 62.899Z" fill="#BEA2DF"/>
<path d="M75.264 62.2511L56.5136 66.3565L61.9487 91.1801L80.6991 87.0747L75.264 62.2511Z" fill="#BEA2DF"/>
<path d="M73.4237 70.7359C74.6612 69.4983 74.6612 67.4918 73.4237 66.2542C72.1861 65.0167 70.1795 65.0167 68.942 66.2542C67.7044 67.4918 67.7044 69.4983 68.942 70.7359C70.1795 71.9735 72.1861 71.9735 73.4237 70.7359Z" fill="#6ABBDB"/>
<path d="M66.2936 67.0937L58.7463 68.7462L58.8625 69.2768L66.4098 67.6243L66.2936 67.0937Z" fill="white" stroke="black" stroke-width="1.3" stroke-miterlimit="10"/>
<path d="M66.5903 68.4502L59.043 70.1026L59.1592 70.6332L66.7065 68.9808L66.5903 68.4502Z" fill="white" stroke="black" stroke-width="1.3" stroke-miterlimit="10"/>
<path d="M66.8872 69.8058L59.3399 71.4583L59.4561 71.9889L67.0034 70.3364L66.8872 69.8058Z" fill="white" stroke="black" stroke-width="1.3" stroke-miterlimit="10"/>
<path d="M67.1839 71.1622L59.6366 72.8147L59.7528 73.3453L67.3001 71.6928L67.1839 71.1622Z" fill="white" stroke="black" stroke-width="1.3" stroke-miterlimit="10"/>
<path d="M72.1025 68.0324C72.309 67.4235 71.9827 66.7625 71.3738 66.556C70.7648 66.3495 70.1038 66.6758 69.8974 67.2847C69.6909 67.8937 70.0171 68.5547 70.6261 68.7611C71.235 68.9676 71.896 68.6413 72.1025 68.0324Z" fill="#E0E0E0" stroke="black" stroke-width="1.3" stroke-miterlimit="10"/>
<path d="M72.1716 73.0081C73.3177 72.7571 74.0139 71.4904 73.7267 70.1788C73.4395 68.8671 72.2777 68.0072 71.1316 68.2582C69.9856 68.5091 69.2893 69.7758 69.5765 71.0874C69.8637 72.3991 71.0256 73.259 72.1716 73.0081Z" fill="#E0E0E0" stroke="black" stroke-width="1.3" stroke-miterlimit="10"/>
<path d="M68.0232 74.9946L60.4759 76.647L60.5791 77.1187L68.1264 75.4662L68.0232 74.9946Z" fill="white" stroke="black" stroke-width="1.3" stroke-miterlimit="10"/>
<path d="M75.9638 73.2562L68.4165 74.9087L68.5198 75.3803L76.0671 73.7278L75.9638 73.2562Z" fill="#204083"/>
<path d="M68.2105 75.8497L60.6632 77.5022L60.7665 77.9738L68.3138 76.3214L68.2105 75.8497Z" fill="white" stroke="black" stroke-width="1.3" stroke-miterlimit="10"/>
<path d="M76.1509 74.1116L68.6036 75.7641L68.7069 76.2357L76.2542 74.5832L76.1509 74.1116Z" fill="#204083"/>
<path d="M68.3977 76.7046L60.8504 78.3571L60.9537 78.8287L68.501 77.1763L68.3977 76.7046Z" fill="white" stroke="black" stroke-width="1.3" stroke-miterlimit="10"/>
<path d="M76.3381 74.9663L68.7908 76.6188L68.8941 77.0904L76.4414 75.438L76.3381 74.9663Z" fill="#204083"/>
<path d="M68.5853 77.5593L61.038 79.2118L61.1412 79.6834L68.6885 78.0309L68.5853 77.5593Z" fill="white" stroke="black" stroke-width="1.3" stroke-miterlimit="10"/>
<path d="M78.2104 83.5155L62.7226 86.9065L63.14 88.8129L78.6278 85.4219L78.2104 83.5155Z" fill="white" stroke="black" stroke-width="1.3" stroke-miterlimit="10"/>
<path d="M76.5254 75.8207L68.9781 77.4732L69.0814 77.9448L76.6287 76.2923L76.5254 75.8207Z" fill="#204083"/>
<path d="M69.4755 81.6241L61.9282 83.2765L62.0314 83.7482L69.5787 82.0957L69.4755 81.6241Z" fill="white" stroke="black" stroke-width="1.3" stroke-miterlimit="10"/>
<path d="M77.4153 79.8865L69.868 81.5389L69.9713 82.0106L77.5186 80.3581L77.4153 79.8865Z" fill="white" stroke="black" stroke-width="1.3" stroke-miterlimit="10"/>
<path d="M69.6622 82.48L62.1149 84.1325L62.2182 84.6041L69.7655 82.9517L69.6622 82.48Z" fill="white" stroke="black" stroke-width="1.3" stroke-miterlimit="10"/>
<path d="M77.6029 80.7409L70.0556 82.3933L70.1588 82.865L77.7061 81.2125L77.6029 80.7409Z" fill="white" stroke="black" stroke-width="1.3" stroke-miterlimit="10"/>
<path d="M69.8495 83.3349L62.3022 84.9874L62.4055 85.4591L69.9528 83.8066L69.8495 83.3349Z" fill="white" stroke="black" stroke-width="1.3" stroke-miterlimit="10"/>
<path d="M77.7899 81.5961L70.2426 83.2486L70.3459 83.7202L77.8932 82.0677L77.7899 81.5961Z" fill="white" stroke="black" stroke-width="1.3" stroke-miterlimit="10"/>
<path d="M70.0368 84.1893L62.4895 85.8418L62.5927 86.3134L70.14 84.6609L70.0368 84.1893Z" fill="white" stroke="black" stroke-width="1.3" stroke-miterlimit="10"/>
<path d="M77.9772 82.4507L70.4299 84.1032L70.5331 84.5748L78.0804 82.9224L77.9772 82.4507Z" fill="white" stroke="black" stroke-width="1.3" stroke-miterlimit="10"/>
<path d="M72.5894 63.8384L54.2384 69.4664L61.6892 93.7612L80.0402 88.1332L72.5894 63.8384Z" fill="#E3F0FE"/>
<path d="M72.1384 71.0368C72.4901 69.3223 71.3852 67.6474 69.6707 67.2957C67.9562 66.9441 66.2812 68.0489 65.9296 69.7635C65.578 71.478 66.6828 73.1529 68.3973 73.5046C70.1119 73.8562 71.7868 72.7514 72.1384 71.0368Z" fill="#9DD7F5"/>
<path d="M64.0459 69.4001L56.6594 71.6654L56.8187 72.1847L64.2052 69.9194L64.0459 69.4001Z" fill="white" stroke="black" stroke-width="1.3" stroke-miterlimit="10"/>
<path d="M64.4913 71.0571L57.0742 73.2976L57.2318 73.8191L64.6488 71.5785L64.4913 71.0571Z" fill="white" stroke="black" stroke-width="1.3037" stroke-miterlimit="10"/>
<path d="M64.8603 72.0543L57.4738 74.3196L57.633 74.8389L65.0195 72.5736L64.8603 72.0543Z" fill="white" stroke="black" stroke-width="1.3" stroke-miterlimit="10"/>
<path d="M65.2668 73.3826L57.8803 75.6479L58.0396 76.1672L65.4261 73.9019L65.2668 73.3826Z" fill="white" stroke="black" stroke-width="1.3" stroke-miterlimit="10"/>
<path d="M68.4399 68.465C68.2194 68.5324 68.0239 68.6637 67.878 68.8423C67.7322 69.0209 67.6426 69.2387 67.6206 69.4682C67.5986 69.6977 67.6452 69.9286 67.7545 70.1316C67.8637 70.3346 68.0307 70.5007 68.2344 70.6087C68.4381 70.7168 68.6692 70.762 68.8986 70.7387C69.128 70.7153 69.3452 70.6245 69.523 70.4776C69.7007 70.3307 69.8308 70.1344 69.8969 69.9135C69.963 69.6926 69.9621 69.4571 69.8944 69.2368C69.8036 68.9417 69.5994 68.6947 69.3267 68.55C69.054 68.4053 68.7351 68.3748 68.4399 68.465Z" fill="#E0E0E0" stroke="black" stroke-width="1.3" stroke-miterlimit="10"/>
<path d="M70.3887 74.8139C71.5103 74.4699 72.1004 73.1504 71.7067 71.8667C71.313 70.583 70.0846 69.8212 68.963 70.1651C67.8414 70.5091 67.2512 71.8286 67.6449 73.1123C68.0386 74.396 69.267 75.1578 70.3887 74.8139Z" fill="#E0E0E0" stroke="black" stroke-width="1.3" stroke-miterlimit="10"/>
<path d="M66.4175 77.1325L59.0309 79.3979L59.1725 79.8594L66.559 77.5941L66.4175 77.1325Z" fill="white" stroke="black" stroke-width="1.3" stroke-miterlimit="10"/>
<path d="M74.1886 74.7492L66.8021 77.0145L66.9436 77.4761L74.3301 75.2107L74.1886 74.7492Z" fill="white" stroke="black" stroke-width="1.3" stroke-miterlimit="10"/>
<path d="M66.6741 77.9694L59.2876 80.2347L59.4291 80.6963L66.8156 78.431L66.6741 77.9694Z" fill="white" stroke="black" stroke-width="1.3" stroke-miterlimit="10"/>
<path d="M74.4454 75.5855L67.0589 77.8508L67.2005 78.3124L74.587 76.0471L74.4454 75.5855Z" fill="white" stroke="black" stroke-width="1.3" stroke-miterlimit="10"/>
<path d="M66.9311 78.8055L59.5446 81.0708L59.6862 81.5324L67.0727 79.2671L66.9311 78.8055Z" fill="white" stroke="black" stroke-width="1.3" stroke-miterlimit="10"/>
<path d="M74.702 76.4227L67.3155 78.688L67.457 79.1496L74.8435 76.8842L74.702 76.4227Z" fill="white" stroke="black" stroke-width="1.3" stroke-miterlimit="10"/>
<path d="M67.1872 79.6432L59.8007 81.9085L59.9422 82.3701L67.3288 80.1048L67.1872 79.6432Z" fill="white" stroke="black" stroke-width="1.3" stroke-miterlimit="10"/>
<path d="M77.2683 84.79L62.1104 89.4387L62.6827 91.3045L77.8406 86.6558L77.2683 84.79Z" fill="white" stroke="black" stroke-width="1.3" stroke-miterlimit="10"/>
<path d="M74.9589 77.259L67.5723 79.5244L67.7139 79.9859L75.1004 77.7206L74.9589 77.259Z" fill="white" stroke="black" stroke-width="1.3" stroke-miterlimit="10"/>
<path d="M68.4074 83.6214L61.0209 85.8867L61.1625 86.3483L68.549 84.0829L68.4074 83.6214Z" fill="white" stroke="black" stroke-width="1.3" stroke-miterlimit="10"/>
<path d="M76.1788 81.2377L68.7923 83.5031L68.9339 83.9646L76.3204 81.6993L76.1788 81.2377Z" fill="white" stroke="black" stroke-width="1.3" stroke-miterlimit="10"/>
<path d="M68.6638 84.4585L61.2773 86.7238L61.4188 87.1854L68.8053 84.9201L68.6638 84.4585Z" fill="white" stroke="black" stroke-width="1.3" stroke-miterlimit="10"/>
<path d="M76.4351 82.0754L69.0486 84.3407L69.1902 84.8023L76.5767 82.537L76.4351 82.0754Z" fill="white" stroke="black" stroke-width="1.3" stroke-miterlimit="10"/>
<path d="M68.9203 85.2954L61.5338 87.5607L61.6753 88.0223L69.0619 85.757L68.9203 85.2954Z" fill="white" stroke="black" stroke-width="1.3" stroke-miterlimit="10"/>
<path d="M76.6917 82.912L69.3052 85.1774L69.4467 85.6389L76.8333 83.3736L76.6917 82.912Z" fill="white" stroke="black" stroke-width="1.3" stroke-miterlimit="10"/>
<path d="M69.1774 86.1318L61.7909 88.3971L61.9325 88.8587L69.319 86.5933L69.1774 86.1318Z" fill="white" stroke="black" stroke-width="1.3" stroke-miterlimit="10"/>
<path d="M76.9486 83.7484L69.562 86.0137L69.7036 86.4753L77.0901 84.21L76.9486 83.7484Z" fill="white" stroke="black" stroke-width="1.3" stroke-miterlimit="10"/>
<path d="M67.9153 63.0191L51.3074 72.6425L64.0478 94.6297L80.6557 85.0063L67.9153 63.0191Z" fill="white"/>
<path d="M65.93 73.3822C67.6802 73.3822 69.099 71.9634 69.099 70.2132C69.099 68.463 67.6802 67.0442 65.93 67.0442C64.1798 67.0442 62.761 68.463 62.761 70.2132C62.761 71.9634 64.1798 73.3822 65.93 73.3822Z" fill="#E3F0FE"/>
<mask id="mask1_423_558" style="mask-type:luminance" maskUnits="userSpaceOnUse" x="62" y="67" width="8" height="7">
<path d="M65.93 73.3822C67.6802 73.3822 69.099 71.9634 69.099 70.2132C69.099 68.463 67.6802 67.0442 65.93 67.0442C64.1798 67.0442 62.761 68.463 62.761 70.2132C62.761 71.9634 64.1798 73.3822 65.93 73.3822Z" fill="white"/>
</mask>
<g mask="url(#mask1_423_558)">
<path d="M64.9165 68.4637C64.7169 68.5791 64.556 68.7511 64.4541 68.958C64.3523 69.1648 64.3141 69.3972 64.3445 69.6258C64.3748 69.8544 64.4722 70.0688 64.6245 70.242C64.7767 70.4151 64.9769 70.5392 65.1997 70.5986C65.4225 70.6579 65.6579 70.6498 65.8761 70.5753C66.0943 70.5009 66.2855 70.3633 66.4255 70.1801C66.5655 69.9969 66.648 69.7763 66.6626 69.5462C66.6772 69.3161 66.6231 69.0868 66.5074 68.8874C66.4307 68.7551 66.3288 68.6392 66.2074 68.5463C66.086 68.4534 65.9474 68.3854 65.7997 68.346C65.652 68.3067 65.4979 68.2968 65.3464 68.317C65.1948 68.3372 65.0488 68.387 64.9165 68.4637Z" fill="#9DD7F5"/>
<path d="M68.2476 74.2076C69.2627 73.6194 69.5399 72.2008 68.8667 71.039C68.1935 69.8773 66.8249 69.4123 65.8098 70.0005C64.7947 70.5887 64.5175 72.0073 65.1907 73.1691C65.8639 74.3308 67.2325 74.7958 68.2476 74.2076Z" fill="#9DD7F5"/>
</g>
<path d="M60.8473 70.3646L54.1624 74.2381L54.4347 74.7081L61.1197 70.8345L60.8473 70.3646Z" fill="#4288D7"/>
<path d="M61.5433 71.5656L54.8584 75.4392L55.1307 75.9092L61.8156 72.0356L61.5433 71.5656Z" fill="#4288D7"/>
<path d="M62.239 72.7675L55.5541 76.6411L55.8265 77.111L62.5114 73.2375L62.239 72.7675Z" fill="#4288D7"/>
<path d="M62.9351 73.9687L56.2502 77.8423L56.5225 78.3122L63.2074 74.4387L62.9351 73.9687Z" fill="#4288D7"/>
<path d="M64.902 77.363L58.217 81.2366L58.4591 81.6543L65.144 77.7807L64.902 77.363Z" fill="#E3F0FE"/>
<path d="M71.9348 73.2885L65.2498 77.162L65.4919 77.5797L72.1768 73.7062L71.9348 73.2885Z" fill="#E3F0FE"/>
<path d="M65.3412 78.1196L58.6563 81.9932L58.8984 82.4109L65.5833 78.5374L65.3412 78.1196Z" fill="#E3F0FE"/>
<path d="M72.3738 74.0458L65.6888 77.9194L65.9309 78.3371L72.6158 74.4636L72.3738 74.0458Z" fill="#E3F0FE"/>
<path d="M65.7798 78.8766L59.0949 82.7502L59.337 83.1679L66.0219 79.2944L65.7798 78.8766Z" fill="#E3F0FE"/>
<path d="M72.8126 74.8025L66.1277 78.676L66.3698 79.0938L73.0547 75.2202L72.8126 74.8025Z" fill="#E3F0FE"/>
<path d="M66.2186 79.634L59.5337 83.5076L59.7757 83.9253L66.4606 80.0518L66.2186 79.634Z" fill="#E3F0FE"/>
<path d="M77.2006 82.3748L63.4825 90.3237L64.4609 92.0123L78.1791 84.0634L77.2006 82.3748Z" fill="#E3F0FE"/>
<path d="M73.2516 75.5589L66.5667 79.4325L66.8088 79.8502L73.4937 75.9767L73.2516 75.5589Z" fill="#E3F0FE"/>
<path d="M68.3041 83.2365L61.6192 87.11L61.8613 87.5278L68.5462 83.6542L68.3041 83.2365Z" fill="#4288D7"/>
<path d="M75.338 79.1599L68.6531 83.0335L68.8951 83.4512L75.58 79.5777L75.338 79.1599Z" fill="#4288D7"/>
<path d="M68.7434 83.9928L62.0585 87.8664L62.3006 88.2841L68.9855 84.4105L68.7434 83.9928Z" fill="#4288D7"/>
<path d="M75.7761 79.918L69.0912 83.7916L69.3332 84.2093L76.0181 80.3358L75.7761 79.918Z" fill="#4288D7"/>
<path d="M69.1825 84.7489L62.4976 88.6225L62.7397 89.0402L69.4246 85.1667L69.1825 84.7489Z" fill="#4288D7"/>
<path d="M76.2153 80.6744L69.5304 84.5479L69.7725 84.9656L76.4574 81.0921L76.2153 80.6744Z" fill="#4288D7"/>
<path d="M69.6205 85.5083L62.9356 89.3818L63.1776 89.7996L69.8626 85.926L69.6205 85.5083Z" fill="#4288D7"/>
<path d="M76.6541 81.4323L69.9691 85.3058L70.2112 85.7236L76.8961 81.85L76.6541 81.4323Z" fill="#4288D7"/>
</g>
<circle cx="57.8404" cy="3.75587" r="3.75587" fill="#3629B7"/>
<circle cx="150.61" cy="25.9155" r="9.38967" fill="#FF4267"/>
<circle cx="137.465" cy="102.16" r="3.75587" fill="#0890FE"/>
<circle cx="39.061" cy="102.16" r="7.51174" fill="#FFAF2A"/>
<circle cx="3.75587" cy="52.5822" r="3.75587" fill="#52D5BA"/>
<defs>
<clipPath id="clip0_423_558">
<rect width="123.944" height="82.6291" fill="white" transform="translate(18.0282 26.2911)"/>
</clipPath>
</defs>
</svg>
