<svg width="141" height="108" viewBox="0 0 141 108" fill="none" xmlns="http://www.w3.org/2000/svg">
<path d="M42.6129 30.0205C19.2892 30.0205 0.365234 21.3371 0.365234 10.6262C0.365234 -0.0846434 19.2892 -8.76697 42.6129 -8.76697C65.9439 -8.76697 84.8606 -0.0835342 84.8606 10.6262C84.8606 21.336 103.78 30.0205 127.111 30.0205C150.442 30.0205 169.358 21.3371 169.358 10.6273C169.358 -0.0824242 188.277 -8.76697 211.608 -8.76697C234.939 -8.76697 253.856 -0.0835342 253.856 10.6262C253.856 21.336 234.939 30.0194 211.608 30.0194C141.601 30.0194 84.863 56.0753 84.863 88.199C84.863 98.9032 65.9463 107.592 42.6153 107.592C19.2843 107.592 0.365234 98.9109 0.365234 88.2012C0.365234 77.4914 19.2819 68.8069 42.6129 68.8069C65.9439 68.8069 84.8557 60.1235 84.8557 49.4137C84.8557 38.704 65.9463 30.0205 42.6129 30.0205Z" fill="#F6F7F9"/>
</svg>
