<?xml version="1.0" encoding="UTF-8"?>
<svg id="Layer_1" xmlns="http://www.w3.org/2000/svg" version="1.1" viewBox="0 0 750 1000">
  <!-- Generator: Adobe Illustrator 29.8.1, SVG Export Plug-In . SVG Version: 2.1.1 Build 2)  -->
  <rect x="-235.2" y="-156.1" width="342.5" height="500.1" rx="25" ry="25" transform="translate(-61.7 -19.7) rotate(-33.1)" fill="#fff" isolation="isolate" opacity="0.08"/>
  <rect x="544.9" y="692.8" width="500.1" height="342.5" rx="25" ry="25" transform="translate(-322 502.2) rotate(-29.4)" fill="#fff" isolation="isolate" opacity="0.08"/>
  <path d="M688.7,57.5c7-5.1,16.5-5.1,23.5,0l226.1,164.3c7,5.1,9.9,14.1,7.3,22.4l-86.4,265.8c-2.7,8.2-10.4,13.8-19,13.8h-279.5c-8.7,0-16.3-5.6-19-13.8l-86.4-265.8c-2.7-8.2.3-17.3,7.3-22.4l226.1-164.3Z" fill="#fff" isolation="isolate" opacity="0.08"/>
  <path d="M199.6,602.9c8.6-1.4,17,2.9,21,10.6l129.4,253.1c3.9,7.7,2.5,17.1-3.6,23.2l-200.7,201.3c-6.1,6.1-15.5,7.6-23.2,3.7l-253.4-128.7c-7.7-3.9-12-12.4-10.7-20.9l44.1-280.8c1.3-8.6,8-15.3,16.6-16.6l280.7-44.9Z" fill="#fff" isolation="isolate" opacity="0.08"/>
</svg>