<?xml version="1.0" encoding="UTF-8"?>
<svg id="Layer_1" xmlns="http://www.w3.org/2000/svg" version="1.1" viewBox="0 0 531 124.1">
  <!-- Generator: Adobe Illustrator 30.0.0, SVG Export Plug-In . SVG Version: 2.1.1 Build 123)  -->
  <g>
    <path d="M291.8,100.6c17,0,25.3-10,25.3-23.5s-8.9-23.1-25.3-23.1h-35.3c-4.6,0-7.8-2.8-7.8-7.6s3-7.6,7.8-7.6h56.8v-16.8h-56.8c-16.3,0-25.1,9.8-25.1,22.7s9.4,22.6,25,22.6h35.5c6.1,0,9.4,3,9.4,8.3s-3.5,8.1-9.4,8.1h-59.3v16.8h59.3Z" fill="#599dfe"/>
    <path d="M392.3,69.4v-14.2h-37.9v14.2h37.9ZM344.6,100.6v-61.7h51v-16.8h-67.8v78.6h16.8Z" fill="#599dfe"/>
    <path d="M512.1,100.6l-19-72.7c-1.1-4.6-3.9-6.8-7.9-6.8s-6.3,2-7.9,5.5l-23.3,49.9-23.3-49.9c-1.7-3.5-5-5.5-8.5-5.5s-7,2.2-8.1,6.8l-19.2,72.7h16.5l12.8-49.5,20.9,44.4c1.8,4.1,4.6,6.3,8.5,6.3s6.7-2.2,8.5-6.3l20.9-44.4,12.9,49.5h16.5Z" fill="#599dfe"/>
  </g>
  <g>
    <polygon points="179.6 43.5 75.4 65.5 98.8 15 192.8 15 179.6 43.5" fill="#599dfe"/>
    <polygon points="27.2 81.5 131.4 59.5 108 110 14 110 27.2 81.5" fill="#599dfe"/>
  </g>
</svg>