<?xml version="1.0" encoding="UTF-8"?>
<svg id="Layer_1" xmlns="http://www.w3.org/2000/svg" version="1.1" viewBox="0 0 152 150">
  <!-- Generator: Adobe Illustrator 30.0.0, SVG Export Plug-In . SVG Version: 2.1.1 Build 123)  -->
  <g>
    <path d="M38.5,139.5c8,0,11.9-4.7,11.9-11s-4.2-10.8-11.9-10.8h-16.6c-2.2,0-3.6-1.3-3.6-3.6s1.4-3.6,3.6-3.6h26.6v-7.9h-26.6c-7.6,0-11.8,4.6-11.8,10.7s4.4,10.6,11.7,10.6h16.6c2.9,0,4.4,1.4,4.4,3.9s-1.6,3.8-4.4,3.8H10.6v7.9h27.8Z" fill="#599dfe"/>
    <path d="M85.6,124.9v-6.7h-17.8v6.7h17.8ZM63.2,139.5v-29h23.9v-7.9h-31.8v36.8h7.9Z" fill="#599dfe"/>
    <path d="M141.8,139.5l-8.9-34.1c-.5-2.2-1.8-3.2-3.7-3.2s-2.9,1-3.7,2.6l-10.9,23.4-10.9-23.4c-.8-1.6-2.3-2.6-4-2.6s-3.3,1-3.8,3.2l-9,34.1h7.7l6-23.2,9.8,20.8c.9,1.9,2.2,2.9,4,2.9s3.1-1,4-2.9l9.8-20.8,6.1,23.2h7.7Z" fill="#599dfe"/>
  </g>
  <g>
    <path d="M132.2,30.9l-76.1,16,17-36.9h68.8l-9.6,20.9Z" fill="#599dfe"/>
    <path d="M20.8,58.5l76.1-16-17,36.9H11.1l9.6-20.9Z" fill="#599dfe"/>
  </g>
</svg>