<?xml version="1.0" encoding="UTF-8"?>
<svg id="Layer_1" xmlns="http://www.w3.org/2000/svg" xmlns:xlink="http://www.w3.org/1999/xlink" version="1.1" viewBox="0 0 186.3 162.1">
  <!-- Generator: Adobe Illustrator 29.1.0, SVG Export Plug-In . SVG Version: 2.1.0 Build 142)  -->
  <defs>
    <style>
      .st0 {
        fill: none;
      }

      .st1 {
        fill: #fff;
      }

      .st1, .st2 {
        fill-rule: evenodd;
      }

      .st2 {
        fill: #0f2c53;
      }

      .st3 {
        clip-path: url(#clippath);
      }
    </style>
    <clipPath id="clippath">
      <rect class="st0" width="186.3" height="162.1"/>
    </clipPath>
  </defs>
  <g class="st3">
    <g>
      <path class="st1" d="M136.8,157.7c45.4-14.5,62.7-60.5,38.5-102.9C151.2,12.5,94.9-10.1,49.5,4.4,4.1,18.9-13.2,64.9,10.9,107.3c24.1,42.3,80.5,64.9,125.9,50.4Z"/>
      <path class="st2" d="M175.4,54.8c-2.1-3.7-4.5-7.3-7.1-10.8l-4.5,14.9-.2.6v.3h-15.3c-3.4,0-6.2,2.5-6.2,5.4s.4,2.3,1.2,3.2l1,1.2,10.5,12.9.3.4h0c2.8,3.7,3.5,8.5,2,13.5-1.5,5.1-5.2,9.9-10.4,13.5-5.1,3.6-11.2,5.6-16.9,5.6h-23.3l.2-.6.3-1.1,4.6-15.3.2-.6v-.3h15.3c3.4,0,6.2-2.4,6.2-5.4s-.4-2.3-1.2-3.2c0,0-.4-.5-.4-.5l-11.1-13.6-.4-.4h0c-2.8-3.7-3.5-8.5-2-13.5,1.5-5.1,5.2-9.9,10.4-13.5,5.1-3.6,11.2-5.6,16.9-5.6h21C144.5,14.5,107.8-1.7,73.1.2l-5.4,17.9-.2.6v.3h-23.4l.2-.6.3-1.1,3.8-12.6C3.8,19.7-13,65.3,10.9,107.3c1.3,2.2,2.6,4.4,4,6.5l21.5-70.8.2-.6v-.3h23.4l-.2.6-.3,1.1-21.6,71.1-.2.6v.3h-21.4c26.4,36.8,78.2,55.4,120.4,41.9,45.4-14.5,62.7-60.5,38.5-102.9ZM103.7,96.6c-1.6,5.1-5.2,9.9-10.4,13.5-5.1,3.6-11.2,5.6-16.9,5.6h-23.3l.2-.6.3-1.1,4.6-15.3.2-.6v-.3h15.3c3.4,0,6.2-2.4,6.2-5.4s-.4-2.3-1.2-3.2l-.4-.5-11.1-13.6-.4-.4h0c-2.8-3.7-3.5-8.5-2-13.5,1.5-5.1,5.2-9.9,10.4-13.5,5.1-3.6,11.2-5.6,16.9-5.6h23.3l-.2.6-.3,1.1-4.6,15.3-.2.6v.3h-15.3c-3.4,0-6.2,2.5-6.2,5.4s.4,2.3,1.2,3.2l1,1.2,10.5,12.8.3.4h0c2.8,3.7,3.6,8.5,2,13.5Z"/>
    </g>
  </g>
</svg>