<?xml version="1.0" encoding="utf-8"?>
<!-- Generator: Adobe Illustrator 27.3.1, SVG Export Plug-In . SVG Version: 6.00 Build 0)  -->
<svg version="1.1" id="Layer_1" xmlns="http://www.w3.org/2000/svg" xmlns:xlink="http://www.w3.org/1999/xlink" x="0px" y="0px"
	 viewBox="0 0 958 124.1" style="enable-background:new 0 0 958 124.1;" xml:space="preserve">
<style type="text/css">
	.st0{fill:#221F1F;}
</style>
<g>
	<g>
		<g>
			<g>
				<polygon class="st0" points="179.6,43.1 75.4,65.1 98.8,14.5 192.8,14.5 				"/>
			</g>
			<g>
				<polygon class="st0" points="27.2,81 131.4,59 108,109.6 14,109.6 				"/>
			</g>
		</g>
	</g>
	<g>
		<g>
			<path class="st0" d="M232.6,100.4V86.7h59c7.4,0,11.5-4.1,11.5-10.2c0-6.8-4.1-10.2-11.5-10.2h-36.2c-14.8,0-24.1-9.4-24.1-22.4
				c0-12.6,8.5-22,24.2-22H312v13.7h-56.5c-6.3,0-9.9,3.6-9.9,9.6s3.8,9.6,9.9,9.6h36c15.9,0,24.4,7.4,24.4,22.7
				c0,13.2-8,23-24.4,23L232.6,100.4L232.6,100.4z"/>
			<path class="st0" d="M327.9,100.4V21.6h70.2v13.7h-56.7v51.2h56.7v13.7L327.9,100.4L327.9,100.4z M351.6,66.2V54.5h43.6v11.6
				L351.6,66.2L351.6,66.2z"/>
			<path class="st0" d="M422.9,42.7v57.6h-13.1V28.9c0-5,2.7-8.2,7.1-8.2c2,0,3.8,0.8,5.8,2.8l55.6,55.1V21h13.1v72.1
				c0,5.2-2.8,8.2-6.8,8.2c-2.2,0-4.4-0.9-6.3-3L422.9,42.7z"/>
			<path class="st0" d="M541,100.4v-30l-41.7-48.8h18.6l30.7,36.2l30.7-36.2h17.5l-41.9,48.8v29.9L541,100.4L541,100.4z"/>
			<path class="st0" d="M630.3,100.4c-22,0-38.3-17.3-38.3-40.1c0-23.1,16.2-38.6,38.3-38.6h19.2c22.7,0,38.6,15.7,38.6,38.6
				s-16.1,40.1-38.6,40.1H630.3z M649.5,86.7c14.5,0,24.7-10.9,24.7-25.8S664,35.3,649.5,35.3h-19.2c-14,0-24.4,10.5-24.4,25.5
				c0,14.8,10.2,25.8,24.4,25.8C630.3,86.7,649.5,86.7,649.5,86.7z"/>
			<path class="st0" d="M712,42.7v57.6h-13.1V28.9c0-5,2.7-8.2,7.1-8.2c2,0,3.8,0.8,5.8,2.8l55.6,55.1V21h13.1v72.1
				c0,5.2-2.8,8.2-6.8,8.2c-2.2,0-4.4-0.9-6.3-3L712,42.7z"/>
			<path class="st0" d="M793.7,100.4V21.6h70.2v13.7h-56.7v51.2h56.7v13.7L793.7,100.4L793.7,100.4z M817.3,66.2V54.5h43.6v11.6
				L817.3,66.2L817.3,66.2z"/>
			<path class="st0" d="M901,100.4v-65h-29.9V21.6h73.5v13.7h-29.9v65L901,100.4L901,100.4z"/>
		</g>
	</g>
</g>
</svg>
