<?xml version="1.0" encoding="utf-8"?>
<!-- Generator: Adobe Illustrator 27.2.0, SVG Export Plug-In . SVG Version: 6.00 Build 0)  -->
<svg version="1.1" id="Layer_1" xmlns="http://www.w3.org/2000/svg"
  xmlns:xlink="http://www.w3.org/1999/xlink" x="0px" y="0px"
  viewBox="0 0 695 124.1" style="enable-background:new 0 0 695 124.1;" xml:space="preserve">
<style type="text/css">
	.st0{fill:#FFFFFF;}
</style>
<g>
	<g>
		<polygon class="st0" points="221.2,37.7 86.5,66.1 116.7,0.7 238.3,0.7 		"/>
		<polygon class="st0" points="24.1,86.6 158.8,58.3 128.7,123.6 7.1,123.6 		"/>
	</g>
	<g>
		<path class="st0" d="M276.9,50.5v-8.7h37.3c4.7,0,7.3-2.6,7.3-6.5c0-4.2-2.6-6.4-7.3-6.4h-22.8c-9.4,0-15.2-6-15.2-14.2
			c0-8,5.4-14,15.3-14h35.7v8.7h-35.7c-4,0-6.3,2.3-6.3,6.1s2.4,6,6.2,6h22.8c10.1,0,15.5,4.7,15.5,14.4c0,8.3-5.1,14.6-15.5,14.6
			H276.9z"/>
		<path class="st0" d="M337.1,50.5V0.7h44.4v8.7h-35.8v32.4h35.8v8.7C381.5,50.5,337.1,50.5,337.1,50.5z M352.1,28.9v-7.3h27.6v7.3
			C379.7,28.9,352.1,28.9,352.1,28.9z"/>
		<path class="st0" d="M397.1,14.1v36.4h-8.3V5.3c0-3.2,1.7-5.2,4.4-5.2c1.3,0,2.4,0.5,3.7,1.8L432,36.7V0.3h8.3v45.6
			c0,3.3-1.8,5.2-4.3,5.2c-1.4,0-2.7-0.6-4-1.8L397.1,14.1z"/>
		<path class="st0" d="M448.7,50.5V0.7h8.7v49.7L448.7,50.5L448.7,50.5z M489.7,50.5l-27.8-21.9c-1.5-1.2-1.8-2.3-1.8-3.6
			c0-1.5,0.4-2.6,2.2-4l26.3-20.2H502L469.4,25L503,50.5H489.7z"/>
		<path class="st0" d="M554.8,50.5l-12.6-13.8h-18.6V29h20.7c6.2,0,9.5-3.6,9.5-10s-3.6-9.6-9.5-9.6h-27.1v41h-8.6V0.7h35.7
			c11.4,0,18.1,7,18.1,18.1c0,8.2-3.8,14-10.3,16.5l15,15.1L554.8,50.5L554.8,50.5z"/>
		<path class="st0" d="M593.1,50.5c-13.9,0-24.1-10.9-24.1-25.4c0-14.6,10.3-24.4,24.1-24.4h12.1c14.4,0,24.4,9.9,24.4,24.4
			c0,14.4-10.2,25.4-24.4,25.4H593.1z M605.2,41.8c9.2,0,15.7-6.9,15.7-16.3s-6.5-16.1-15.7-16.1h-12.1c-8.9,0-15.5,6.6-15.5,16.1
			c0,9.4,6.5,16.3,15.5,16.3H605.2z"/>
		<path class="st0" d="M644.7,14.1v36.4h-8.3V5.3c0-3.2,1.7-5.2,4.4-5.2c1.3,0,2.4,0.5,3.7,1.8l35.1,34.8V0.3h8.3v45.6
			c0,3.3-1.8,5.2-4.3,5.2c-1.4,0-2.7-0.6-4-1.8L644.7,14.1z"/>
	</g>
	<g>
		<g>
			<path class="st0" d="M295.9,123.7v-41H277V74h46.4v8.7h-18.9v41H295.9z"/>
			<path class="st0" d="M329.2,123.7V73.9h44.4v8.7h-35.8V115h35.8v8.7H329.2z M344.2,102v-7.3h27.6v7.3H344.2z"/>
			<path class="st0" d="M403.8,123.7c-13.9,0-24.1-10.9-24.1-25.4c0-14.6,10.3-24.4,24.1-24.4h27v8.7h-27c-8.9,0-15.5,6.6-15.5,16.1
				c0,9.4,6.5,16.3,15.5,16.3h27v8.7L403.8,123.7L403.8,123.7z"/>
			<path class="st0" d="M437.8,123.9v-50h8.7v49.9L437.8,123.9L437.8,123.9z M477.8,123.9v-21.6h-25v-7.7h25V73.9h8.7v49.9
				L477.8,123.9L477.8,123.9z"/>
		</g>
	</g>
</g>
</svg>
