<?xml version="1.0" encoding="utf-8"?>
<!-- Generator: Adobe Illustrator 27.2.0, SVG Export Plug-In . SVG Version: 6.00 Build 0)  -->
<svg version="1.1" id="Layer_1" xmlns="http://www.w3.org/2000/svg"
  xmlns:xlink="http://www.w3.org/1999/xlink" x="0px" y="0px"
  viewBox="0 0 695 124.1" style="enable-background:new 0 0 695 124.1;" xml:space="preserve">
<style type="text/css">
	.st0{fill:#773DBD;}
	.st1{fill:#221F1F;}
</style>
<g>
	<g>
		<polygon class="st0" points="220.7,37.6 85.5,66.1 115.8,0.5 237.9,0.5 		"/>
		<polygon class="st0" points="22.9,86.7 158.1,58.3 127.8,123.9 5.8,123.9 		"/>
	</g>
	<g>
		<path class="st1" d="M276.7,50.4v-8.7h37.4c4.7,0,7.3-2.6,7.3-6.5c0-4.3-2.6-6.5-7.3-6.5h-22.9c-9.4,0-15.2-6-15.2-14.2
			c0-8,5.4-14,15.4-14h35.8v8.7h-35.8c-4,0-6.3,2.3-6.3,6.1s2.4,6,6.2,6h22.9c10.1,0,15.5,4.7,15.5,14.4c0,8.4-5.1,14.6-15.5,14.6
			L276.7,50.4L276.7,50.4z"/>
		<path class="st1" d="M337.1,50.4V0.5h44.6v8.7h-35.9v32.5h36v8.7H337.1z M352.1,28.7v-7.3h27.7v7.3H352.1z"/>
		<path class="st1" d="M397.3,13.9v36.5H389V5.1c0-3.2,1.7-5.2,4.5-5.2c1.3,0,2.4,0.5,3.7,1.8l35.2,35V0.1h8.3v45.7
			c0,3.3-1.8,5.2-4.3,5.2c-1.4,0-2.7-0.6-4-1.9L397.3,13.9z"/>
		<path class="st1" d="M449.1,50.4V0.5h8.7v49.9H449.1z M490.2,50.4l-27.9-22c-1.5-1.2-1.8-2.3-1.8-3.6c0-1.5,0.4-2.6,2.2-4
			l26.4-20.3h13.4l-32.7,24.4l33.7,25.5H490.2z"/>
		<path class="st1" d="M555.5,50.4l-12.6-13.9h-18.7v-7.7H545c6.2,0,9.5-3.6,9.5-10S551,9.2,545,9.2h-27.2v41.2h-8.7V0.5H545
			c11.4,0,18.1,7.1,18.1,18.2c0,8.2-3.8,14.1-10.3,16.5l15,15.2H555.5z"/>
		<path class="st1" d="M594.1,50.4c-13.9,0-24.2-11-24.2-25.5c0-14.7,10.3-24.4,24.2-24.4h12.2c14.4,0,24.4,10,24.4,24.4
			c0,14.5-10.2,25.5-24.4,25.5H594.1z M606.2,41.7c9.2,0,15.7-6.9,15.7-16.3s-6.5-16.1-15.7-16.1H594c-8.9,0-15.5,6.7-15.5,16.1
			S585,41.7,594,41.7H606.2z"/>
		<path class="st1" d="M645.8,13.9v36.5h-8.3V5.1c0-3.2,1.7-5.2,4.5-5.2c1.3,0,2.4,0.5,3.7,1.8l35.2,35V0.1h8.3v45.7
			c0,3.3-1.8,5.2-4.3,5.2c-1.4,0-2.7-0.6-4-1.9L645.8,13.9z"/>
	</g>
	<g>
		<g>
			<path class="st1" d="M295.7,123.9V82.7h-19V74h46.6v8.7h-19v41.2C304.3,123.9,295.7,123.9,295.7,123.9z"/>
			<path class="st1" d="M329.1,123.9V74h44.6v8.7h-35.9v32.5h36v8.7C373.8,123.9,329.1,123.9,329.1,123.9z M344.1,102.2v-7.3h27.7
				v7.3H344.1z"/>
			<path class="st1" d="M404,123.9c-13.9,0-24.2-11-24.2-25.5c0-14.7,10.3-24.4,24.2-24.4h27.1v8.7H404c-8.9,0-15.5,6.7-15.5,16.1
				s6.5,16.3,15.5,16.3h27.1v8.7H404V123.9z"/>
			<path class="st1" d="M438.1,124.1V74h8.7v50.1H438.1z M478.3,124.1v-21.7h-25.1v-7.8h25.1V74h8.7v50.1H478.3z"/>
		</g>
	</g>
</g>
</svg>
