<svg width="152" height="150" viewBox="0 0 152 150" fill="none" xmlns="http://www.w3.org/2000/svg">
<path d="M31.7584 149.433C40.7189 149.433 45.0856 144.158 45.0856 137.07C45.0856 128.846 40.4353 124.99 31.7584 124.99H13.2138C10.7752 124.99 9.18726 123.572 9.18726 121.02C9.18726 118.468 10.7185 117.05 13.2138 117.05H43.044V108.203H13.2138C4.65034 108.203 0 113.307 0 120.113C0 127.088 4.99061 131.966 13.1004 131.966H31.7584C34.9343 131.966 36.7491 133.553 36.7491 136.332C36.7491 138.941 34.9343 140.586 31.7584 140.586H0.623827V149.433H31.7584Z" fill="#773DBD"/>
<path d="M84.5462 133.043V125.557H64.6405V133.043H84.5462ZM59.4797 149.433V117.05H86.2476V108.203H50.6894V149.433H59.4797Z" fill="#773DBD"/>
<path d="M147.398 149.433L137.36 111.266C136.736 108.884 135.318 107.693 133.163 107.693C131.292 107.693 129.818 108.771 128.967 110.642L116.717 136.843L104.467 110.642C103.56 108.771 101.859 107.693 100.044 107.693C97.7755 107.693 96.3577 108.884 95.7339 111.266L85.6392 149.433H94.3161L101.008 123.402L111.953 146.711C112.917 148.809 114.335 150 116.434 150C118.589 150 119.893 148.809 120.914 146.711L131.916 123.402L138.664 149.433H147.398Z" fill="#773DBD"/>
<path d="M140.803 24.1219L52.9761 42.6179L72.6474 0H151.93L140.803 24.1219Z" fill="#773DBD"/>
<path d="M12.314 56.0175L100.141 37.5215L80.47 80.1394H1.1875L12.314 56.0175Z" fill="#773DBD"/>
</svg>
