<svg width="24" height="24" viewBox="0 0 24 24" fill="none" xmlns="http://www.w3.org/2000/svg">
<path fill-rule="evenodd" clip-rule="evenodd" d="M19.2827 4.72205C19.5743 5.01624 19.5722 5.49111 19.278 5.7827L16.0408 8.99107H17.2485C17.6627 8.99107 17.9985 9.32686 17.9985 9.74107C17.9985 10.1553 17.6627 10.4911 17.2485 10.4911H14.2186C13.8044 10.4911 13.4686 10.1553 13.4686 9.74107V6.7381C13.4686 6.32389 13.8044 5.9881 14.2186 5.9881C14.6328 5.9881 14.9686 6.32389 14.9686 6.7381V7.94179L18.222 4.71731C18.5162 4.42572 18.9911 4.42785 19.2827 4.72205ZM4.71965 4.71969C5.01254 4.42678 5.48741 4.42677 5.78031 4.71965L8.99134 7.93049V6.7381C8.99134 6.32389 9.32713 5.9881 9.74134 5.9881C10.1556 5.9881 10.4913 6.32389 10.4913 6.7381V9.74107C10.4913 10.1553 10.1556 10.4911 9.74134 10.4911H6.73819C6.32398 10.4911 5.98819 10.1553 5.98819 9.74107C5.98819 9.32686 6.32398 8.99107 6.73819 8.99107H7.9306L4.71969 5.78035C4.42678 5.48746 4.42677 5.01259 4.71965 4.71969ZM5.98819 14.2589C5.98819 13.8447 6.32398 13.5089 6.73819 13.5089H9.74134C10.1556 13.5089 10.4913 13.8447 10.4913 14.2589V17.2619C10.4913 17.6761 10.1556 18.0119 9.74134 18.0119C9.32713 18.0119 8.99134 17.6761 8.99134 17.2619V16.0695L5.78032 19.2803C5.48742 19.5732 5.01254 19.5732 4.71966 19.2803C4.42677 18.9874 4.42678 18.5125 4.71968 18.2197L7.93061 15.0089H6.73819C6.32398 15.0089 5.98819 14.6731 5.98819 14.2589ZM13.4686 14.2589C13.4686 13.8447 13.8044 13.5089 14.2186 13.5089H17.2485C17.6627 13.5089 17.9985 13.8447 17.9985 14.2589C17.9985 14.6731 17.6627 15.0089 17.2485 15.0089H16.0408L19.278 18.2173C19.5722 18.5089 19.5743 18.9838 19.2827 19.278C18.9911 19.5722 18.5162 19.5743 18.222 19.2827L14.9686 16.0582V17.2619C14.9686 17.6761 14.6328 18.0119 14.2186 18.0119C13.8044 18.0119 13.4686 17.6761 13.4686 17.2619V14.2589Z" fill="currentColor"/>
</svg>
