<svg width="24" height="24" viewBox="0 0 24 24" fill="none" xmlns="http://www.w3.org/2000/svg">
<path fill-rule="evenodd" clip-rule="evenodd" d="M13.5 7.5C13.0858 7.5 12.75 7.16421 12.75 6.75C12.75 6.33579 13.0858 6 13.5 6H17.25C17.6642 6 18 6.33579 18 6.75V10.5C18 10.9142 17.6642 11.25 17.25 11.25C16.8358 11.25 16.5 10.9142 16.5 10.5V8.56066L8.56066 16.5H10.5C10.9142 16.5 11.25 16.8358 11.25 17.25C11.25 17.6642 10.9142 18 10.5 18H6.75C6.33579 18 6 17.6642 6 17.25V13.5C6 13.0858 6.33579 12.75 6.75 12.75C7.16421 12.75 7.5 13.0858 7.5 13.5V15.4393L15.4393 7.5H13.5Z" fill="currentColor"/>
</svg>
